<!-- Generator: Adobe Illustrator 19.0.0, SVG Export Plug-In . SVG Version: 6.00 Build 0)  -->
<svg version="1.1" id="Layer_1" xmlns="http://www.w3.org/2000/svg" xmlns:xlink="http://www.w3.org/1999/xlink" x="0px" y="0px"
	 viewBox="0 0 300 400" enable-background="new 0 0 300 400" xml:space="preserve">
<g id="XMLID_251_">
	<g id="XMLID_7_">
		<g id="XMLID_8_">
			<path id="XMLID_557_" fill="#FFFFFF" d="M290.4,22.8v352.3c0,8-6.5,14.5-14.5,14.5H27.1c-8,0-14.5-6.5-14.5-14.5V22.8
				c0-8,6.5-14.5,14.5-14.5h248.8C283.9,8.3,290.4,14.8,290.4,22.8z"/>
		</g>
	</g>
	<g id="XMLID_218_">
		<defs>
			<path id="XMLID_539_" d="M290.4,22.8v352.3c0,8-6.5,14.5-14.5,14.5H27.1c-8,0-14.5-6.5-14.5-14.5V22.8c0-8,6.5-14.5,14.5-14.5
				h248.8C283.9,8.3,290.4,14.8,290.4,22.8z"/>
		</defs>
		<clipPath id="XMLID_307_">
			<use xlink:href="#XMLID_539_"  overflow="visible"/>
		</clipPath>
		<g id="XMLID_230_" opacity="0.4" clip-path="url(#XMLID_307_)">
			<g id="XMLID_236_" opacity="0.37">
				<g id="XMLID_6_">
					<path id="XMLID_279_" fill="#27AAE1" d="M145.2,408.9c4.7-71.6,83.5-48.1,128.3-121.7s115.9,66,111.1,137.6
						c-4.7,71.6-63.4,147.8-128.3,121.7S140.4,480.5,145.2,408.9z"/>
				</g>
			</g>
			<g id="XMLID_231_" opacity="0.37">
				<g id="XMLID_5_">
					<path id="XMLID_278_" fill="#27AAE1" d="M161.4,382.9c4.7-71.6,83.5-48.1,128.3-121.7s115.9,66,111.1,137.6
						c-4.7,71.6-63.4,147.8-128.3,121.7C207.6,494.4,156.7,454.5,161.4,382.9z"/>
				</g>
			</g>
		</g>
		<g id="XMLID_223_" opacity="0.4" clip-path="url(#XMLID_307_)">
			<g id="XMLID_227_" opacity="0.37">
				<g id="XMLID_4_">
					<path id="XMLID_277_" fill="#27AAE1" d="M192.9-9c-21.4,68.5-92.4,27.2-153.2,88.3S-57.5-11.9-36.1-80.4s96.2-128.9,153.2-88.3
						S214.3-77.5,192.9-9z"/>
				</g>
			</g>
			<g id="XMLID_224_" opacity="0.37">
				<g id="XMLID_3_">
					<path id="XMLID_276_" fill="#27AAE1" d="M171.1,12.5C149.7,81,78.7,39.7,17.9,100.8S-79.3,9.6-58-58.9s96.2-128.9,153.2-88.3
						S192.4-56,171.1,12.5z"/>
				</g>
			</g>
		</g>
	</g>
	<g id="XMLID_271_">
		<path id="XMLID_273_" fill="#27AAE1" d="M231.5,278.7h-160c-8.3,0-15-6.7-15-15l0,0c0-8.3,6.7-15,15-15h160c8.3,0,15,6.7,15,15
			l0,0C246.5,272,239.8,278.7,231.5,278.7z"/>
	</g>
	<g id="XMLID_268_">
		<path id="XMLID_11_" fill="#27AAE1" d="M232.8,203.9h-37.5c-1.5,0-2.7-1.2-2.7-2.7v-7.3c0-1.5,1.2-2.7,2.7-2.7h37.5
			c1.5,0,2.7,1.2,2.7,2.7v7.3C235.5,202.7,234.3,203.9,232.8,203.9z"/>
	</g>
	<g id="XMLID_267_">
		<path id="XMLID_250_" fill="#27AAE1" d="M149.7,191.2c0.2-0.3,0.4-0.5,0.6-0.8c0.2-0.2,0.4-0.5,0.6-0.7c-1.4,0.8-3,1.1-4.8,1.1
			c-1.1,0-2.2-0.2-3.3-0.6s-2.1-1-3-1.8c-0.9-0.8-1.6-1.8-2.1-3c-0.6-1.2-0.8-2.6-0.8-4.3c0-1.5,0.3-2.9,0.8-4.3
			c0.6-1.3,1.4-2.5,2.4-3.5c1-1,2.3-1.8,3.7-2.4c1.4-0.6,3-0.9,4.8-0.9c1.8,0,3.4,0.3,4.8,0.8c1.4,0.6,2.6,1.3,3.6,2.3
			c1,1,1.7,2.2,2.3,3.5c0.5,1.4,0.8,2.9,0.8,4.5c0,2.2-0.3,4.2-1,5.9s-1.5,3.4-2.6,4.9l-7.2,10.2c-0.3,0.4-0.8,0.8-1.5,1.1
			c-0.7,0.3-1.4,0.5-2.2,0.5H139L149.7,191.2z M144,180.6c0,3.3,1.5,5,4.6,5c1.5,0,2.7-0.5,3.5-1.4s1.2-2.1,1.2-3.6
			c0-0.8-0.1-1.5-0.4-2.1s-0.6-1.1-1-1.6c-0.4-0.4-0.9-0.7-1.5-0.9c-0.6-0.2-1.2-0.3-2-0.3c-0.7,0-1.4,0.1-1.9,0.4
			c-0.6,0.3-1,0.6-1.4,1s-0.7,1-0.9,1.6C144.1,179.3,144,179.9,144,180.6z"/>
		<path id="XMLID_269_" fill="#27AAE1" d="M187.8,187.1c0,2.9-0.3,5.5-0.9,7.6c-0.6,2.1-1.5,3.9-2.6,5.3c-1.1,1.4-2.4,2.5-4,3.1
			c-1.5,0.7-3.2,1-5,1s-3.4-0.3-4.9-1c-1.5-0.7-2.8-1.7-3.9-3.1c-1.1-1.4-2-3.2-2.6-5.3c-0.6-2.1-0.9-4.7-0.9-7.6s0.3-5.5,0.9-7.6
			s1.5-3.9,2.6-5.3c1.1-1.4,2.4-2.5,3.9-3.1c1.5-0.7,3.2-1,4.9-1s3.4,0.3,5,1c1.5,0.7,2.8,1.7,4,3.1c1.1,1.4,2,3.2,2.6,5.3
			S187.8,184.2,187.8,187.1z M180.4,187.1c0-2.3-0.1-4.2-0.4-5.7c-0.3-1.5-0.7-2.6-1.2-3.5c-0.5-0.8-1-1.4-1.6-1.7
			c-0.6-0.3-1.2-0.5-1.9-0.5s-1.2,0.2-1.8,0.5c-0.6,0.3-1.1,0.9-1.6,1.7c-0.5,0.8-0.8,2-1.1,3.5c-0.3,1.5-0.4,3.4-0.4,5.7
			c0,2.3,0.1,4.2,0.4,5.7c0.3,1.5,0.7,2.6,1.1,3.5c0.5,0.8,1,1.4,1.6,1.7c0.6,0.3,1.2,0.5,1.8,0.5s1.2-0.2,1.9-0.5
			c0.6-0.3,1.2-0.9,1.6-1.7c0.5-0.9,0.9-2,1.2-3.5C180.3,191.3,180.4,189.4,180.4,187.1z"/>
	</g>
	<g id="XMLID_266_">
		<path id="XMLID_242_" fill="#6D6E71" d="M207.3,186.1h-2.6c-0.3,0-0.5-0.1-0.7-0.2c-0.2-0.1-0.3-0.3-0.4-0.5l-0.9-2.6h-5.6
			l-0.9,2.6c-0.1,0.2-0.2,0.4-0.4,0.5c-0.2,0.2-0.4,0.2-0.7,0.2h-2.7l5.7-14.7h3.5L207.3,186.1z M201.9,180.5l-1.4-4
			c-0.1-0.3-0.2-0.6-0.3-0.9s-0.2-0.7-0.3-1.1c-0.1,0.4-0.2,0.8-0.3,1.1c-0.1,0.3-0.2,0.7-0.3,0.9l-1.3,4H201.9z"/>
		<path id="XMLID_245_" fill="#6D6E71" d="M214.2,183.4c0.5,0,0.9-0.1,1.2-0.2c0.4-0.2,0.7-0.4,0.9-0.6c0.2-0.3,0.4-0.6,0.6-1
			c0.1-0.4,0.2-0.9,0.2-1.4v-8.7h3.4v8.7c0,0.9-0.1,1.7-0.4,2.5c-0.3,0.8-0.7,1.4-1.3,1.9s-1.2,1-2,1.3c-0.8,0.3-1.7,0.5-2.6,0.5
			c-1,0-1.9-0.2-2.6-0.5c-0.8-0.3-1.4-0.7-2-1.3s-1-1.2-1.2-1.9c-0.3-0.8-0.4-1.6-0.4-2.5v-8.7h3.4v8.7c0,0.5,0.1,1,0.2,1.4
			c0.1,0.4,0.3,0.8,0.6,1c0.2,0.3,0.6,0.5,0.9,0.7C213.3,183.4,213.7,183.4,214.2,183.4z"/>
		<path id="XMLID_247_" fill="#6D6E71" d="M236.4,178.8c0,1.1-0.2,2-0.5,2.9c-0.4,0.9-0.9,1.7-1.5,2.3c-0.7,0.7-1.5,1.2-2.4,1.5
			c-0.9,0.4-2,0.5-3.1,0.5h-5.7v-14.7h5.7c1.1,0,2.2,0.2,3.1,0.6c0.9,0.4,1.7,0.9,2.4,1.5s1.2,1.4,1.5,2.3
			C236.3,176.8,236.4,177.7,236.4,178.8z M233,178.8c0-0.7-0.1-1.4-0.3-2c-0.2-0.6-0.5-1.1-0.8-1.5c-0.4-0.4-0.8-0.7-1.3-0.9
			c-0.5-0.2-1.1-0.3-1.7-0.3h-2.3v9.4h2.3c0.7,0,1.2-0.1,1.7-0.3c0.5-0.2,0.9-0.5,1.3-0.9c0.4-0.4,0.6-0.9,0.8-1.5
			C232.9,180.2,233,179.5,233,178.8z"/>
	</g>
	<g id="XMLID_265_">
		<path id="XMLID_212_" fill="#FFFFFF" d="M197.4,200.9V197l-0.5-0.1c-0.1,0-0.1,0-0.2-0.1c0,0-0.1-0.1-0.1-0.1v-0.3h0.7V196
			c0-0.3,0-0.5,0.1-0.7c0.1-0.2,0.2-0.4,0.3-0.5s0.3-0.2,0.5-0.3c0.2-0.1,0.4-0.1,0.6-0.1c0.2,0,0.4,0,0.6,0.1l0,0.4
			c0,0.1,0,0.1-0.1,0.1c-0.1,0-0.2,0-0.3,0c-0.1,0-0.3,0-0.4,0.1c-0.1,0-0.2,0.1-0.3,0.2s-0.1,0.2-0.2,0.3c0,0.1-0.1,0.3-0.1,0.5
			v0.4h1.3v0.6h-1.3v3.9H197.4z"/>
		<path id="XMLID_221_" fill="#FFFFFF" d="M202.1,196.2c0.3,0,0.6,0.1,0.9,0.2c0.3,0.1,0.5,0.3,0.7,0.5c0.2,0.2,0.3,0.5,0.4,0.7
			s0.2,0.6,0.2,1c0,0.4,0,0.7-0.2,1c-0.1,0.3-0.2,0.5-0.4,0.7c-0.2,0.2-0.4,0.4-0.7,0.5c-0.3,0.1-0.6,0.2-0.9,0.2
			c-0.3,0-0.6-0.1-0.9-0.2c-0.3-0.1-0.5-0.3-0.7-0.5c-0.2-0.2-0.3-0.5-0.4-0.7c-0.1-0.3-0.2-0.6-0.2-1c0-0.4,0-0.7,0.2-1
			s0.2-0.5,0.4-0.7c0.2-0.2,0.4-0.4,0.7-0.5C201.4,196.3,201.7,196.2,202.1,196.2z M202.1,200.3c0.5,0,0.8-0.2,1-0.5
			s0.3-0.7,0.3-1.3c0-0.5-0.1-1-0.3-1.3c-0.2-0.3-0.6-0.5-1-0.5c-0.2,0-0.4,0-0.6,0.1s-0.3,0.2-0.4,0.3c-0.1,0.1-0.2,0.3-0.3,0.5
			s-0.1,0.5-0.1,0.7c0,0.5,0.1,1,0.3,1.3C201.3,200.2,201.6,200.3,202.1,200.3z"/>
		<path id="XMLID_226_" fill="#FFFFFF" d="M206,197.2c0.1-0.3,0.3-0.6,0.5-0.7c0.2-0.2,0.5-0.3,0.8-0.3c0.1,0,0.2,0,0.3,0
			c0.1,0,0.2,0.1,0.2,0.1l-0.1,0.6c0,0.1-0.1,0.1-0.1,0.1c0,0-0.1,0-0.2,0c-0.1,0-0.2,0-0.3,0c-0.1,0-0.3,0-0.4,0.1
			c-0.1,0-0.2,0.1-0.3,0.2s-0.2,0.2-0.2,0.3c-0.1,0.1-0.1,0.3-0.2,0.4v2.9h-0.8v-4.6h0.5c0.1,0,0.1,0,0.2,0s0.1,0.1,0.1,0.2
			L206,197.2z"/>
		<path id="XMLID_229_" fill="#FFFFFF" d="M214.5,200.1c0.1,0,0.2,0,0.2,0.1s0.1,0.1,0.1,0.2v0.5h-4.3v-0.3c0-0.1,0-0.1,0-0.2
			c0-0.1,0.1-0.1,0.1-0.2l2.1-2.1c0.2-0.2,0.3-0.3,0.5-0.5c0.1-0.2,0.3-0.3,0.4-0.5c0.1-0.2,0.2-0.3,0.2-0.5
			c0.1-0.2,0.1-0.3,0.1-0.5s0-0.4-0.1-0.5c-0.1-0.1-0.1-0.3-0.2-0.4s-0.2-0.2-0.4-0.2c-0.1,0-0.3-0.1-0.5-0.1c-0.2,0-0.3,0-0.5,0.1
			c-0.1,0-0.3,0.1-0.4,0.2s-0.2,0.2-0.3,0.3c-0.1,0.1-0.1,0.2-0.2,0.4c0,0.1-0.1,0.2-0.1,0.2c-0.1,0-0.1,0-0.3,0l-0.4-0.1
			c0-0.3,0.1-0.6,0.2-0.8c0.1-0.2,0.3-0.4,0.5-0.6c0.2-0.2,0.4-0.3,0.6-0.3c0.2-0.1,0.5-0.1,0.8-0.1c0.3,0,0.5,0,0.8,0.1
			c0.2,0.1,0.4,0.2,0.6,0.4c0.2,0.2,0.3,0.3,0.4,0.6c0.1,0.2,0.1,0.5,0.1,0.8c0,0.2,0,0.5-0.1,0.7c-0.1,0.2-0.2,0.4-0.3,0.6
			c-0.1,0.2-0.3,0.4-0.4,0.5c-0.2,0.2-0.3,0.4-0.5,0.5l-1.7,1.7c0.1,0,0.2-0.1,0.4-0.1s0.2,0,0.4,0H214.5z"/>
		<path id="XMLID_233_" fill="#FFFFFF" d="M219,197c0.2-0.2,0.4-0.4,0.7-0.6c0.3-0.1,0.5-0.2,0.9-0.2c0.3,0,0.5,0.1,0.7,0.2
			s0.4,0.2,0.5,0.4c0.2,0.2,0.3,0.4,0.3,0.7c0.1,0.3,0.1,0.6,0.1,1c0,0.3,0,0.7-0.1,0.9c-0.1,0.3-0.2,0.5-0.4,0.8
			c-0.2,0.2-0.4,0.4-0.6,0.5s-0.5,0.2-0.8,0.2c-0.3,0-0.5,0-0.7-0.1c-0.2-0.1-0.4-0.2-0.5-0.4v2h-0.8v-6.1h0.5
			c0.1,0,0.2,0.1,0.2,0.2L219,197z M219,199.8c0.1,0.2,0.3,0.3,0.5,0.4s0.4,0.1,0.6,0.1c0.4,0,0.8-0.2,1-0.5
			c0.2-0.3,0.3-0.7,0.3-1.3c0-0.3,0-0.6-0.1-0.8c-0.1-0.2-0.1-0.4-0.2-0.5c-0.1-0.1-0.2-0.2-0.4-0.3c-0.1-0.1-0.3-0.1-0.5-0.1
			c-0.3,0-0.5,0.1-0.7,0.2c-0.2,0.1-0.4,0.3-0.5,0.5V199.8z"/>
		<path id="XMLID_237_" fill="#FFFFFF" d="M223.1,197c0.3-0.2,0.5-0.4,0.8-0.5c0.3-0.1,0.6-0.2,1-0.2c0.3,0,0.5,0,0.7,0.1
			s0.4,0.2,0.5,0.4c0.1,0.1,0.2,0.3,0.3,0.5c0.1,0.2,0.1,0.4,0.1,0.7v2.9h-0.4c-0.1,0-0.1,0-0.2,0s-0.1-0.1-0.1-0.2l-0.1-0.4
			c-0.1,0.1-0.2,0.2-0.4,0.3c-0.1,0.1-0.2,0.2-0.4,0.2c-0.1,0.1-0.3,0.1-0.4,0.1c-0.1,0-0.3,0-0.5,0c-0.2,0-0.3,0-0.5-0.1
			s-0.3-0.1-0.4-0.2c-0.1-0.1-0.2-0.2-0.3-0.4c-0.1-0.2-0.1-0.3-0.1-0.5c0-0.2,0-0.4,0.1-0.5c0.1-0.2,0.3-0.3,0.5-0.4
			c0.2-0.1,0.5-0.2,0.9-0.3c0.4-0.1,0.8-0.1,1.3-0.1V198c0-0.4-0.1-0.6-0.2-0.8s-0.4-0.3-0.7-0.3c-0.2,0-0.4,0-0.5,0.1
			s-0.2,0.1-0.3,0.2s-0.2,0.1-0.3,0.2c-0.1,0-0.1,0.1-0.2,0.1c-0.1,0-0.1,0-0.1,0c0,0-0.1-0.1-0.1-0.1L223.1,197z M225.7,198.8
			c-0.4,0-0.7,0-0.9,0.1c-0.3,0-0.5,0.1-0.6,0.2c-0.2,0.1-0.3,0.2-0.4,0.3c-0.1,0.1-0.1,0.2-0.1,0.3c0,0.1,0,0.2,0.1,0.3
			c0,0.1,0.1,0.2,0.2,0.2c0.1,0.1,0.1,0.1,0.2,0.1s0.2,0,0.3,0c0.1,0,0.3,0,0.4,0c0.1,0,0.2-0.1,0.3-0.1c0.1-0.1,0.2-0.1,0.3-0.2
			s0.2-0.2,0.3-0.3V198.8z"/>
		<path id="XMLID_240_" fill="#FFFFFF" d="M231.5,200.9h-0.8c-0.1,0-0.1,0-0.2-0.1c0,0-0.1-0.1-0.1-0.1l-1.1-1.8c0,0,0,0.1,0,0.1
			c0,0,0,0.1-0.1,0.1l-1.1,1.6c0,0-0.1,0.1-0.1,0.1c0,0-0.1,0.1-0.1,0.1h-0.7l1.6-2.3l-1.5-2.2h0.8c0.1,0,0.1,0,0.1,0
			c0,0,0.1,0.1,0.1,0.1l1.1,1.7c0-0.1,0.1-0.2,0.1-0.3l1-1.4c0,0,0.1-0.1,0.1-0.1c0,0,0.1,0,0.1,0h0.7l-1.5,2.2L231.5,200.9z"/>
	</g>
	<g id="XMLID_263_">
		<path id="XMLID_199_" fill="#FFFFFF" d="M134.6,265v2.9c-0.4,0.3-0.8,0.5-1.2,0.6s-0.9,0.2-1.3,0.2c-0.6,0-1.1-0.1-1.6-0.3
			c-0.5-0.2-0.9-0.4-1.2-0.8c-0.3-0.3-0.6-0.7-0.8-1.2s-0.3-0.9-0.3-1.5c0-0.5,0.1-1,0.3-1.5c0.2-0.5,0.4-0.8,0.8-1.2
			c0.3-0.3,0.7-0.6,1.2-0.8s1-0.3,1.6-0.3c0.3,0,0.6,0,0.8,0.1s0.5,0.1,0.7,0.2c0.2,0.1,0.4,0.2,0.6,0.3c0.2,0.1,0.3,0.2,0.5,0.4
			l-0.4,0.6c-0.1,0.1-0.1,0.2-0.2,0.2c-0.1,0-0.2,0-0.3-0.1c-0.1-0.1-0.2-0.1-0.3-0.2s-0.2-0.1-0.4-0.2s-0.3-0.1-0.5-0.1
			c-0.2,0-0.4,0-0.6,0c-0.4,0-0.7,0.1-1,0.2c-0.3,0.1-0.5,0.3-0.7,0.5c-0.2,0.2-0.4,0.5-0.5,0.8c-0.1,0.3-0.2,0.7-0.2,1
			c0,0.4,0.1,0.8,0.2,1.1c0.1,0.3,0.3,0.6,0.5,0.8c0.2,0.2,0.5,0.4,0.8,0.5c0.3,0.1,0.6,0.2,1,0.2c0.3,0,0.5,0,0.7-0.1
			s0.4-0.1,0.6-0.2v-1.3h-0.9c-0.1,0-0.2,0-0.2-0.1c0,0-0.1-0.1-0.1-0.2V265H134.6z"/>
		<path id="XMLID_201_" fill="#FFFFFF" d="M137.2,262.5v2h2.5v1h-2.5v2h3.2v1.1h-4.6v-7.2h4.6v1.1H137.2z"/>
		<path id="XMLID_203_" fill="#FFFFFF" d="M146.7,262.5h-2.2v6.1h-1.3v-6.1H141v-1.1h5.7V262.5z"/>
		<path id="XMLID_205_" fill="#FFFFFF" d="M155.9,261.4v7.2h-0.7c-0.1,0-0.2,0-0.3-0.1c-0.1,0-0.1-0.1-0.2-0.2l-3.8-4.8
			c0,0.2,0,0.4,0,0.6v4.4h-1.2v-7.2h0.7c0.1,0,0.1,0,0.1,0c0,0,0.1,0,0.1,0c0,0,0.1,0,0.1,0.1s0.1,0.1,0.1,0.1l3.8,4.8
			c0-0.1,0-0.2,0-0.3c0-0.1,0-0.2,0-0.3v-4.4H155.9z"/>
		<path id="XMLID_207_" fill="#FFFFFF" d="M164.4,265.1c0,0.5-0.1,1-0.3,1.5c-0.2,0.5-0.4,0.8-0.7,1.2s-0.7,0.6-1.2,0.8
			c-0.5,0.2-1,0.3-1.5,0.3c-0.5,0-1-0.1-1.5-0.3c-0.4-0.2-0.8-0.4-1.2-0.8s-0.6-0.7-0.7-1.2c-0.2-0.5-0.3-0.9-0.3-1.5
			c0-0.5,0.1-1,0.3-1.5c0.2-0.5,0.4-0.8,0.7-1.2s0.7-0.6,1.2-0.8c0.5-0.2,0.9-0.3,1.5-0.3c0.4,0,0.7,0,1,0.1s0.6,0.2,0.9,0.4
			c0.3,0.2,0.5,0.3,0.7,0.6c0.2,0.2,0.4,0.5,0.5,0.7s0.3,0.6,0.3,0.9C164.3,264.4,164.4,264.7,164.4,265.1z M163,265.1
			c0-0.4-0.1-0.8-0.2-1.1c-0.1-0.3-0.3-0.6-0.5-0.8c-0.2-0.2-0.4-0.4-0.7-0.5c-0.3-0.1-0.6-0.2-1-0.2s-0.7,0.1-1,0.2
			c-0.3,0.1-0.5,0.3-0.7,0.5c-0.2,0.2-0.4,0.5-0.5,0.8c-0.1,0.3-0.2,0.7-0.2,1.1s0.1,0.8,0.2,1.1c0.1,0.3,0.3,0.6,0.5,0.8
			c0.2,0.2,0.4,0.4,0.7,0.5c0.3,0.1,0.6,0.2,1,0.2s0.7-0.1,1-0.2c0.3-0.1,0.5-0.3,0.7-0.5c0.2-0.2,0.3-0.5,0.5-0.8
			C162.9,265.8,163,265.5,163,265.1z"/>
		<path id="XMLID_210_" fill="#FFFFFF" d="M175,261.4l-2.2,7.2h-1.2l-1.6-4.9c0-0.1-0.1-0.3-0.1-0.4c0,0.1,0,0.2-0.1,0.2
			c0,0.1,0,0.1-0.1,0.2l-1.6,4.9h-1.2l-2.2-7.2h1.1c0.1,0,0.2,0,0.3,0.1s0.1,0.1,0.2,0.2l1.2,4.3c0,0.1,0.1,0.2,0.1,0.3
			c0,0.1,0.1,0.3,0.1,0.4c0-0.1,0.1-0.3,0.1-0.4c0-0.1,0.1-0.2,0.1-0.3l1.4-4.3c0-0.1,0.1-0.1,0.2-0.2s0.2-0.1,0.3-0.1h0.4
			c0.1,0,0.2,0,0.3,0.1c0.1,0.1,0.1,0.1,0.2,0.2l1.4,4.3c0.1,0.2,0.1,0.4,0.2,0.7c0-0.3,0.1-0.5,0.1-0.7l1.2-4.3
			c0-0.1,0.1-0.2,0.2-0.2c0.1-0.1,0.2-0.1,0.3-0.1H175z"/>
	</g>
	<g id="XMLID_261_">
		<path id="XMLID_143_" fill="#6D6E71" d="M120.2,156c-0.1,0.1-0.1,0.2-0.2,0.2s-0.1,0.1-0.2,0.1c-0.1,0-0.2,0-0.3-0.1
			c-0.1-0.1-0.2-0.1-0.4-0.2c-0.1-0.1-0.3-0.2-0.5-0.2s-0.4-0.1-0.7-0.1c-0.2,0-0.5,0-0.6,0.1c-0.2,0.1-0.3,0.1-0.5,0.2
			c-0.1,0.1-0.2,0.2-0.3,0.4c-0.1,0.1-0.1,0.3-0.1,0.5c0,0.2,0.1,0.4,0.2,0.6s0.3,0.3,0.5,0.4c0.2,0.1,0.4,0.2,0.7,0.3
			c0.3,0.1,0.5,0.2,0.8,0.3c0.3,0.1,0.5,0.2,0.8,0.3c0.3,0.1,0.5,0.3,0.7,0.5c0.2,0.2,0.4,0.4,0.5,0.7c0.1,0.3,0.2,0.6,0.2,1
			c0,0.4-0.1,0.8-0.2,1.2c-0.1,0.4-0.4,0.7-0.6,1s-0.6,0.5-1,0.7s-0.9,0.2-1.4,0.2c-0.3,0-0.6,0-0.9-0.1s-0.6-0.1-0.8-0.3
			s-0.5-0.2-0.8-0.4c-0.2-0.2-0.4-0.3-0.6-0.5l0.5-0.8c0-0.1,0.1-0.1,0.2-0.2s0.1-0.1,0.2-0.1c0.1,0,0.2,0,0.4,0.1
			c0.1,0.1,0.3,0.2,0.4,0.3c0.2,0.1,0.4,0.2,0.6,0.3s0.5,0.1,0.8,0.1c0.5,0,0.9-0.1,1.2-0.4c0.3-0.2,0.4-0.6,0.4-1
			c0-0.2-0.1-0.4-0.2-0.6c-0.1-0.2-0.3-0.3-0.5-0.4c-0.2-0.1-0.4-0.2-0.7-0.3c-0.3-0.1-0.5-0.2-0.8-0.2s-0.5-0.2-0.8-0.3
			c-0.3-0.1-0.5-0.3-0.7-0.5c-0.2-0.2-0.4-0.4-0.5-0.7c-0.1-0.3-0.2-0.7-0.2-1.1c0-0.3,0.1-0.7,0.2-1c0.1-0.3,0.3-0.6,0.6-0.9
			c0.3-0.3,0.6-0.5,1-0.6c0.4-0.2,0.8-0.2,1.3-0.2c0.6,0,1.1,0.1,1.5,0.3c0.5,0.2,0.9,0.4,1.2,0.7L120.2,156z"/>
		<path id="XMLID_145_" fill="#6D6E71" d="M123.4,157.9c0.3-0.3,0.6-0.6,0.9-0.7c0.3-0.2,0.8-0.3,1.2-0.3c0.4,0,0.7,0.1,1,0.2
			c0.3,0.2,0.6,0.4,0.8,0.7s0.4,0.6,0.5,1.1c0.1,0.4,0.2,0.9,0.2,1.5c0,0.5-0.1,1-0.2,1.4c-0.1,0.4-0.3,0.8-0.6,1.1
			c-0.3,0.3-0.6,0.6-0.9,0.7c-0.4,0.2-0.7,0.3-1.2,0.3c-0.4,0-0.7-0.1-1-0.2c-0.3-0.1-0.5-0.3-0.7-0.5v2.7h-1.6V157h1
			c0.2,0,0.3,0.1,0.4,0.3L123.4,157.9z M123.5,162c0.2,0.2,0.4,0.4,0.6,0.5c0.2,0.1,0.4,0.1,0.7,0.1c0.2,0,0.5,0,0.7-0.1
			c0.2-0.1,0.4-0.2,0.5-0.4s0.2-0.4,0.3-0.7c0.1-0.3,0.1-0.6,0.1-1c0-0.4,0-0.7-0.1-1c-0.1-0.3-0.2-0.5-0.3-0.7s-0.3-0.3-0.4-0.4
			c-0.2-0.1-0.4-0.1-0.6-0.1c-0.3,0-0.6,0.1-0.9,0.2c-0.2,0.1-0.5,0.3-0.7,0.6V162z"/>
		<path id="XMLID_148_" fill="#6D6E71" d="M130.5,160.6c0,0.3,0.1,0.6,0.2,0.9c0.1,0.2,0.2,0.5,0.4,0.6c0.2,0.2,0.3,0.3,0.6,0.4
			c0.2,0.1,0.5,0.1,0.7,0.1s0.5,0,0.7-0.1s0.4-0.1,0.5-0.2c0.1-0.1,0.3-0.1,0.4-0.2c0.1-0.1,0.2-0.1,0.3-0.1c0.1,0,0.2,0,0.3,0.1
			l0.5,0.6c-0.2,0.2-0.4,0.4-0.6,0.5s-0.5,0.3-0.7,0.3c-0.2,0.1-0.5,0.1-0.7,0.2c-0.2,0-0.5,0.1-0.7,0.1c-0.5,0-0.9-0.1-1.3-0.2
			c-0.4-0.2-0.7-0.4-1-0.7c-0.3-0.3-0.5-0.7-0.7-1.1s-0.3-1-0.3-1.5c0-0.5,0.1-0.9,0.2-1.3c0.1-0.4,0.4-0.8,0.6-1s0.6-0.5,1-0.7
			c0.4-0.2,0.8-0.3,1.3-0.3c0.4,0,0.8,0.1,1.2,0.2c0.4,0.1,0.7,0.3,0.9,0.6s0.5,0.6,0.6,0.9c0.1,0.4,0.2,0.8,0.2,1.3
			c0,0.2,0,0.4-0.1,0.5c-0.1,0.1-0.2,0.1-0.3,0.1H130.5z M133.6,159.6c0-0.2,0-0.4-0.1-0.6s-0.1-0.3-0.3-0.5
			c-0.1-0.1-0.3-0.2-0.4-0.3c-0.2-0.1-0.4-0.1-0.6-0.1c-0.5,0-0.8,0.1-1.1,0.4s-0.4,0.6-0.5,1.1H133.6z"/>
		<path id="XMLID_151_" fill="#6D6E71" d="M141,158.4c0,0.1-0.1,0.1-0.1,0.1c0,0-0.1,0.1-0.2,0.1c-0.1,0-0.2,0-0.2-0.1
			s-0.2-0.1-0.3-0.2c-0.1-0.1-0.2-0.1-0.4-0.2c-0.2,0-0.3-0.1-0.6-0.1c-0.3,0-0.5,0.1-0.7,0.2c-0.2,0.1-0.4,0.2-0.5,0.4
			s-0.2,0.4-0.3,0.7c-0.1,0.3-0.1,0.6-0.1,0.9c0,0.4,0,0.7,0.1,0.9s0.2,0.5,0.3,0.7c0.1,0.2,0.3,0.3,0.5,0.4s0.4,0.1,0.7,0.1
			s0.5,0,0.6-0.1c0.2-0.1,0.3-0.1,0.4-0.2c0.1-0.1,0.2-0.1,0.3-0.2c0.1-0.1,0.2-0.1,0.3-0.1c0.1,0,0.2,0,0.3,0.1l0.5,0.6
			c-0.2,0.2-0.4,0.4-0.6,0.5s-0.4,0.3-0.6,0.3c-0.2,0.1-0.5,0.1-0.7,0.2c-0.2,0-0.5,0.1-0.7,0.1c-0.4,0-0.8-0.1-1.2-0.2
			c-0.4-0.2-0.7-0.4-1-0.7c-0.3-0.3-0.5-0.7-0.6-1.1s-0.2-0.9-0.2-1.5c0-0.5,0.1-0.9,0.2-1.4s0.3-0.8,0.6-1.1c0.3-0.3,0.6-0.5,1-0.7
			s0.9-0.3,1.4-0.3c0.5,0,0.9,0.1,1.3,0.2s0.7,0.4,1,0.7L141,158.4z"/>
		<path id="XMLID_153_" fill="#6D6E71" d="M144.4,155.1c0,0.1,0,0.3-0.1,0.4c-0.1,0.1-0.1,0.2-0.2,0.3c-0.1,0.1-0.2,0.2-0.3,0.2
			c-0.1,0.1-0.3,0.1-0.4,0.1c-0.1,0-0.3,0-0.4-0.1c-0.1-0.1-0.2-0.1-0.3-0.2c-0.1-0.1-0.2-0.2-0.2-0.3c-0.1-0.1-0.1-0.3-0.1-0.4
			c0-0.1,0-0.3,0.1-0.4c0.1-0.1,0.1-0.2,0.2-0.3c0.1-0.1,0.2-0.2,0.3-0.2c0.1-0.1,0.3-0.1,0.4-0.1c0.1,0,0.3,0,0.4,0.1
			c0.1,0.1,0.2,0.1,0.3,0.2c0.1,0.1,0.2,0.2,0.2,0.3C144.4,154.8,144.4,154.9,144.4,155.1z M144.2,157v6.7h-1.6V157H144.2z"/>
		<path id="XMLID_156_" fill="#6D6E71" d="M145.7,157.9c0.8-0.7,1.7-1.1,2.8-1.1c0.4,0,0.7,0.1,1,0.2s0.6,0.3,0.8,0.5
			s0.4,0.5,0.5,0.8s0.2,0.7,0.2,1v4.2h-0.7c-0.2,0-0.3,0-0.4-0.1c-0.1,0-0.1-0.1-0.2-0.3l-0.1-0.5c-0.2,0.2-0.3,0.3-0.5,0.4
			c-0.2,0.1-0.3,0.2-0.5,0.3c-0.2,0.1-0.4,0.1-0.6,0.2c-0.2,0-0.4,0.1-0.7,0.1c-0.3,0-0.5,0-0.8-0.1c-0.2-0.1-0.4-0.2-0.6-0.3
			c-0.2-0.2-0.3-0.3-0.4-0.6c-0.1-0.2-0.1-0.5-0.1-0.8c0-0.2,0-0.3,0.1-0.5c0.1-0.2,0.1-0.3,0.3-0.5c0.1-0.2,0.3-0.3,0.5-0.4
			c0.2-0.1,0.5-0.3,0.8-0.4c0.3-0.1,0.6-0.2,1-0.2s0.8-0.1,1.4-0.1v-0.4c0-0.4-0.1-0.8-0.3-1c-0.2-0.2-0.5-0.3-0.8-0.3
			c-0.3,0-0.5,0-0.6,0.1s-0.3,0.1-0.5,0.2c-0.1,0.1-0.2,0.1-0.4,0.2c-0.1,0.1-0.2,0.1-0.4,0.1c-0.1,0-0.2,0-0.3-0.1
			c-0.1-0.1-0.1-0.1-0.2-0.2L145.7,157.9z M149.3,160.8c-0.5,0-0.9,0.1-1.2,0.1c-0.3,0.1-0.6,0.1-0.8,0.2c-0.2,0.1-0.3,0.2-0.4,0.3
			c-0.1,0.1-0.1,0.3-0.1,0.4c0,0.3,0.1,0.5,0.3,0.6s0.4,0.2,0.7,0.2c0.3,0,0.6-0.1,0.9-0.2c0.2-0.1,0.5-0.3,0.7-0.5V160.8z"/>
		<path id="XMLID_159_" fill="#6D6E71" d="M154,154v9.7h-1.6V154H154z"/>
		<path id="XMLID_162_" fill="#6D6E71" d="M168,159c0,0.7-0.1,1.3-0.3,1.9s-0.5,1.1-1,1.5s-0.9,0.8-1.5,1c-0.6,0.2-1.2,0.4-2,0.4
			c-0.7,0-1.4-0.1-1.9-0.4c-0.6-0.2-1.1-0.6-1.5-1s-0.7-0.9-1-1.5s-0.3-1.2-0.3-1.9c0-0.7,0.1-1.3,0.3-1.9s0.6-1.1,1-1.5
			s0.9-0.8,1.5-1c0.6-0.2,1.2-0.4,1.9-0.4c0.5,0,0.9,0.1,1.3,0.2c0.4,0.1,0.8,0.3,1.2,0.5c0.4,0.2,0.7,0.4,0.9,0.7s0.5,0.6,0.7,1
			s0.3,0.7,0.4,1.2S168,158.5,168,159z M166.2,159c0-0.5-0.1-1-0.2-1.4s-0.3-0.8-0.6-1c-0.3-0.3-0.6-0.5-0.9-0.7
			c-0.4-0.2-0.8-0.2-1.2-0.2s-0.9,0.1-1.2,0.2c-0.4,0.2-0.7,0.4-0.9,0.7c-0.3,0.3-0.5,0.6-0.6,1s-0.2,0.9-0.2,1.4s0.1,1,0.2,1.4
			s0.3,0.8,0.6,1s0.6,0.5,0.9,0.7s0.8,0.2,1.2,0.2s0.9-0.1,1.2-0.2s0.7-0.4,0.9-0.7s0.5-0.6,0.6-1S166.2,159.5,166.2,159z"/>
		<path id="XMLID_166_" fill="#6D6E71" d="M169.7,163.7v-5.5l-0.6-0.1c-0.1,0-0.2-0.1-0.3-0.1c-0.1-0.1-0.1-0.2-0.1-0.3v-0.7h1v-0.4
			c0-0.4,0.1-0.7,0.2-1c0.1-0.3,0.3-0.6,0.5-0.8c0.2-0.2,0.5-0.4,0.8-0.5c0.3-0.1,0.7-0.2,1-0.2c0.3,0,0.6,0,0.9,0.1l0,0.8
			c0,0.1,0,0.1-0.1,0.1c0,0-0.1,0.1-0.1,0.1s-0.1,0-0.2,0s-0.1,0-0.2,0c-0.2,0-0.4,0-0.5,0.1c-0.2,0-0.3,0.1-0.4,0.2
			c-0.1,0.1-0.2,0.2-0.2,0.4c-0.1,0.2-0.1,0.4-0.1,0.6v0.3h2.7v-0.6c0-0.4,0.1-0.7,0.2-1c0.1-0.3,0.3-0.6,0.5-0.8
			c0.2-0.2,0.5-0.4,0.8-0.5c0.3-0.1,0.7-0.2,1-0.2c0.2,0,0.3,0,0.4,0s0.3,0,0.4,0.1l0,0.8c0,0.1-0.1,0.2-0.2,0.2c-0.1,0-0.2,0-0.4,0
			c-0.2,0-0.4,0-0.5,0.1s-0.3,0.1-0.4,0.2c-0.1,0.1-0.2,0.2-0.2,0.4c-0.1,0.2-0.1,0.4-0.1,0.6v0.5h1.7v1.1h-1.7v5.5h-1.6v-5.5h-2.6
			v5.5H169.7z"/>
		<path id="XMLID_168_" fill="#6D6E71" d="M179.2,160.6c0,0.3,0.1,0.6,0.2,0.9c0.1,0.2,0.2,0.5,0.4,0.6s0.3,0.3,0.6,0.4
			c0.2,0.1,0.5,0.1,0.7,0.1s0.5,0,0.7-0.1s0.4-0.1,0.5-0.2c0.1-0.1,0.3-0.1,0.4-0.2s0.2-0.1,0.3-0.1c0.1,0,0.2,0,0.3,0.1l0.5,0.6
			c-0.2,0.2-0.4,0.4-0.6,0.5c-0.2,0.1-0.5,0.3-0.7,0.3c-0.2,0.1-0.5,0.1-0.7,0.2c-0.2,0-0.5,0.1-0.7,0.1c-0.5,0-0.9-0.1-1.3-0.2
			c-0.4-0.2-0.7-0.4-1-0.7s-0.5-0.7-0.7-1.1s-0.3-1-0.3-1.5c0-0.5,0.1-0.9,0.2-1.3c0.1-0.4,0.4-0.8,0.6-1c0.3-0.3,0.6-0.5,1-0.7
			s0.8-0.3,1.3-0.3c0.4,0,0.8,0.1,1.2,0.2c0.4,0.1,0.7,0.3,0.9,0.6c0.3,0.3,0.5,0.6,0.6,0.9c0.1,0.4,0.2,0.8,0.2,1.3
			c0,0.2,0,0.4-0.1,0.5c-0.1,0.1-0.2,0.1-0.3,0.1H179.2z M182.2,159.6c0-0.2,0-0.4-0.1-0.6s-0.1-0.3-0.3-0.5s-0.3-0.2-0.4-0.3
			s-0.4-0.1-0.6-0.1c-0.5,0-0.8,0.1-1.1,0.4c-0.3,0.3-0.4,0.6-0.5,1.1H182.2z"/>
		<path id="XMLID_172_" fill="#6D6E71" d="M186.4,158.2c0.2-0.4,0.5-0.7,0.7-0.9s0.6-0.3,1-0.3c0.3,0,0.6,0.1,0.7,0.2l-0.1,1.2
			c0,0.1-0.1,0.1-0.1,0.2s-0.1,0-0.2,0c-0.1,0-0.2,0-0.3,0s-0.3,0-0.4,0c-0.2,0-0.3,0-0.5,0.1c-0.1,0.1-0.3,0.1-0.4,0.2
			c-0.1,0.1-0.2,0.2-0.3,0.4s-0.2,0.3-0.2,0.5v4.1h-1.6V157h0.9c0.2,0,0.3,0,0.3,0.1c0.1,0.1,0.1,0.2,0.1,0.3L186.4,158.2z"/>
	</g>
	<g id="XMLID_259_">
		<path id="XMLID_64_" fill="#27AAE1" d="M74.6,230.8h-2.1v6H71v-6h-2.1v-1.2h5.7V230.8z"/>
		<path id="XMLID_66_" fill="#27AAE1" d="M75.2,234.4c0,0.5,0.2,0.8,0.4,1c0.2,0.2,0.5,0.3,0.9,0.3c0.2,0,0.4,0,0.5-0.1
			c0.1,0,0.3-0.1,0.4-0.1c0.1-0.1,0.2-0.1,0.3-0.1c0.1,0,0.2-0.1,0.3-0.1c0.1,0,0.2,0,0.2,0.1l0.4,0.5c-0.1,0.2-0.3,0.3-0.5,0.4
			c-0.2,0.1-0.4,0.2-0.5,0.3c-0.2,0.1-0.4,0.1-0.6,0.1s-0.4,0-0.6,0c-0.4,0-0.7-0.1-1-0.2s-0.6-0.3-0.8-0.5
			c-0.2-0.2-0.4-0.5-0.5-0.9c-0.1-0.3-0.2-0.7-0.2-1.2c0-0.3,0.1-0.7,0.2-1c0.1-0.3,0.3-0.6,0.5-0.8c0.2-0.2,0.5-0.4,0.8-0.5
			c0.3-0.1,0.7-0.2,1-0.2c0.3,0,0.6,0.1,0.9,0.2c0.3,0.1,0.5,0.3,0.7,0.5c0.2,0.2,0.4,0.4,0.5,0.7s0.2,0.6,0.2,1c0,0.1,0,0.2,0,0.3
			c0,0.1,0,0.1,0,0.2c0,0-0.1,0.1-0.1,0.1c0,0-0.1,0-0.2,0H75.2z M77.3,233.6c0-0.1,0-0.3-0.1-0.4c0-0.1-0.1-0.2-0.2-0.3
			c-0.1-0.1-0.2-0.2-0.3-0.2c-0.1-0.1-0.3-0.1-0.5-0.1c-0.3,0-0.6,0.1-0.8,0.3c-0.2,0.2-0.3,0.4-0.4,0.8H77.3z"/>
		<path id="XMLID_69_" fill="#27AAE1" d="M80.5,234.4c0,0.5,0.2,0.8,0.4,1c0.2,0.2,0.5,0.3,0.9,0.3c0.2,0,0.4,0,0.5-0.1
			c0.1,0,0.3-0.1,0.4-0.1c0.1-0.1,0.2-0.1,0.3-0.1c0.1,0,0.2-0.1,0.3-0.1c0.1,0,0.2,0,0.2,0.1l0.4,0.5c-0.1,0.2-0.3,0.3-0.5,0.4
			c-0.2,0.1-0.4,0.2-0.5,0.3c-0.2,0.1-0.4,0.1-0.6,0.1s-0.4,0-0.6,0c-0.4,0-0.7-0.1-1-0.2s-0.6-0.3-0.8-0.5
			c-0.2-0.2-0.4-0.5-0.5-0.9c-0.1-0.3-0.2-0.7-0.2-1.2c0-0.3,0.1-0.7,0.2-1c0.1-0.3,0.3-0.6,0.5-0.8c0.2-0.2,0.5-0.4,0.8-0.5
			c0.3-0.1,0.7-0.2,1-0.2c0.3,0,0.6,0.1,0.9,0.2c0.3,0.1,0.5,0.3,0.7,0.5c0.2,0.2,0.4,0.4,0.5,0.7s0.2,0.6,0.2,1c0,0.1,0,0.2,0,0.3
			c0,0.1,0,0.1,0,0.2c0,0-0.1,0.1-0.1,0.1c0,0-0.1,0-0.2,0H80.5z M82.6,233.6c0-0.1,0-0.3-0.1-0.4c0-0.1-0.1-0.2-0.2-0.3
			c-0.1-0.1-0.2-0.2-0.3-0.2c-0.1-0.1-0.3-0.1-0.5-0.1c-0.3,0-0.6,0.1-0.8,0.3c-0.2,0.2-0.3,0.4-0.4,0.8H82.6z"/>
		<path id="XMLID_72_" fill="#27AAE1" d="M86.4,236.8c-0.2,0-0.4,0-0.6-0.1c-0.2-0.1-0.3-0.2-0.5-0.3c-0.1-0.1-0.2-0.3-0.3-0.5
			c-0.1-0.2-0.1-0.4-0.1-0.6v-2.8h-0.5c-0.1,0-0.1,0-0.2-0.1c-0.1,0-0.1-0.1-0.1-0.2v-0.5l0.8-0.1l0.3-1.3c0-0.1,0.1-0.2,0.3-0.2
			h0.7v1.6h1.3v1h-1.3v2.7c0,0.1,0,0.3,0.1,0.3c0.1,0.1,0.2,0.1,0.3,0.1c0.1,0,0.1,0,0.2,0c0,0,0.1,0,0.1,0c0,0,0.1,0,0.1,0
			c0,0,0.1,0,0.1,0c0,0,0.1,0,0.1,0c0,0,0.1,0,0.1,0.1l0.4,0.7c-0.2,0.1-0.4,0.3-0.6,0.3C86.9,236.8,86.7,236.8,86.4,236.8z"/>
		<path id="XMLID_74_" fill="#27AAE1" d="M89.8,232.1c0.1-0.1,0.2-0.2,0.3-0.2c0.1-0.1,0.2-0.1,0.3-0.2c0.1-0.1,0.2-0.1,0.4-0.1
			s0.3,0,0.4,0c0.3,0,0.5,0,0.7,0.1c0.2,0.1,0.4,0.2,0.5,0.4c0.1,0.2,0.3,0.4,0.3,0.6c0.1,0.2,0.1,0.5,0.1,0.8v3.2h-1.4v-3.2
			c0-0.3-0.1-0.5-0.2-0.7s-0.3-0.2-0.6-0.2c-0.2,0-0.4,0-0.5,0.1c-0.2,0.1-0.3,0.2-0.5,0.3v3.7h-1.4v-7.4h1.4V232.1z"/>
		<path id="XMLID_76_" fill="#27AAE1" d="M101.4,235c0.1,0,0.2,0,0.2,0.1l0.6,0.6c-0.3,0.4-0.7,0.7-1.1,0.8s-0.9,0.3-1.5,0.3
			c-0.5,0-1-0.1-1.5-0.3c-0.4-0.2-0.8-0.4-1.1-0.8c-0.3-0.3-0.5-0.7-0.7-1.2c-0.2-0.4-0.2-0.9-0.2-1.5c0-0.4,0-0.7,0.1-1
			c0.1-0.3,0.2-0.6,0.3-0.9c0.1-0.3,0.3-0.5,0.5-0.7s0.4-0.4,0.7-0.6c0.3-0.2,0.6-0.3,0.9-0.4c0.3-0.1,0.6-0.1,1-0.1
			c0.3,0,0.5,0,0.8,0.1c0.2,0,0.5,0.1,0.7,0.2c0.2,0.1,0.4,0.2,0.6,0.3c0.2,0.1,0.3,0.2,0.5,0.4l-0.5,0.7c0,0-0.1,0.1-0.1,0.1
			s-0.1,0-0.2,0c-0.1,0-0.2,0-0.2-0.1c-0.1-0.1-0.2-0.1-0.3-0.2s-0.3-0.1-0.4-0.2c-0.2-0.1-0.4-0.1-0.7-0.1c-0.3,0-0.6,0.1-0.8,0.2
			c-0.3,0.1-0.5,0.3-0.6,0.5c-0.2,0.2-0.3,0.5-0.4,0.8c-0.1,0.3-0.1,0.6-0.1,1c0,0.4,0.1,0.7,0.2,1c0.1,0.3,0.3,0.6,0.4,0.8
			s0.4,0.4,0.7,0.5c0.2,0.1,0.5,0.2,0.8,0.2c0.2,0,0.3,0,0.5,0s0.3,0,0.4-0.1c0.1,0,0.2-0.1,0.3-0.2c0.1-0.1,0.2-0.1,0.3-0.2
			c0,0,0.1-0.1,0.1-0.1S101.4,235,101.4,235z"/>
		<path id="XMLID_78_" fill="#27AAE1" d="M104.3,229.4v7.4h-1.4v-7.4H104.3z"/>
		<path id="XMLID_80_" fill="#27AAE1" d="M106.5,234.4c0,0.5,0.2,0.8,0.4,1c0.2,0.2,0.5,0.3,0.9,0.3c0.2,0,0.4,0,0.5-0.1
			c0.1,0,0.3-0.1,0.4-0.1c0.1-0.1,0.2-0.1,0.3-0.1c0.1,0,0.2-0.1,0.3-0.1c0.1,0,0.2,0,0.2,0.1l0.4,0.5c-0.1,0.2-0.3,0.3-0.5,0.4
			c-0.2,0.1-0.4,0.2-0.5,0.3c-0.2,0.1-0.4,0.1-0.6,0.1s-0.4,0-0.6,0c-0.4,0-0.7-0.1-1-0.2s-0.6-0.3-0.8-0.5
			c-0.2-0.2-0.4-0.5-0.5-0.9c-0.1-0.3-0.2-0.7-0.2-1.2c0-0.3,0.1-0.7,0.2-1c0.1-0.3,0.3-0.6,0.5-0.8c0.2-0.2,0.5-0.4,0.8-0.5
			c0.3-0.1,0.7-0.2,1-0.2c0.3,0,0.6,0.1,0.9,0.2c0.3,0.1,0.5,0.3,0.7,0.5c0.2,0.2,0.4,0.4,0.5,0.7s0.2,0.6,0.2,1c0,0.1,0,0.2,0,0.3
			c0,0.1,0,0.1,0,0.2c0,0-0.1,0.1-0.1,0.1c0,0-0.1,0-0.2,0H106.5z M108.6,233.6c0-0.1,0-0.3-0.1-0.4c0-0.1-0.1-0.2-0.2-0.3
			c-0.1-0.1-0.2-0.2-0.3-0.2c-0.1-0.1-0.3-0.1-0.5-0.1c-0.3,0-0.6,0.1-0.8,0.3c-0.2,0.2-0.3,0.4-0.4,0.8H108.6z"/>
		<path id="XMLID_83_" fill="#27AAE1" d="M110.6,232.4c0.3-0.3,0.6-0.5,1-0.6s0.8-0.2,1.2-0.2c0.3,0,0.6,0,0.8,0.1
			c0.2,0.1,0.4,0.2,0.6,0.4s0.3,0.4,0.4,0.6c0.1,0.2,0.1,0.5,0.1,0.8v3.2h-0.6c-0.1,0-0.2,0-0.3-0.1c-0.1,0-0.1-0.1-0.2-0.2
			l-0.1-0.3c-0.1,0.1-0.3,0.2-0.4,0.3c-0.1,0.1-0.2,0.2-0.4,0.2s-0.3,0.1-0.4,0.1c-0.1,0-0.3,0-0.5,0c-0.2,0-0.4,0-0.6-0.1
			s-0.3-0.1-0.5-0.3s-0.2-0.3-0.3-0.4c-0.1-0.2-0.1-0.4-0.1-0.6c0-0.2,0-0.4,0.1-0.6c0.1-0.2,0.3-0.4,0.5-0.5
			c0.2-0.2,0.5-0.3,0.9-0.4s0.9-0.2,1.5-0.2v-0.3c0-0.3-0.1-0.6-0.2-0.7s-0.3-0.2-0.6-0.2c-0.2,0-0.3,0-0.5,0.1
			c-0.1,0-0.2,0.1-0.3,0.1c-0.1,0.1-0.2,0.1-0.3,0.1c-0.1,0-0.2,0.1-0.3,0.1c-0.1,0-0.2,0-0.2-0.1s-0.1-0.1-0.2-0.2L110.6,232.4z
			 M113.4,234.6c-0.3,0-0.6,0-0.8,0.1c-0.2,0-0.4,0.1-0.5,0.2c-0.1,0.1-0.2,0.1-0.3,0.2c-0.1,0.1-0.1,0.2-0.1,0.3
			c0,0.2,0.1,0.3,0.2,0.4c0.1,0.1,0.3,0.1,0.5,0.1c0.2,0,0.4,0,0.6-0.1c0.2-0.1,0.3-0.2,0.5-0.4V234.6z"/>
		<path id="XMLID_86_" fill="#27AAE1" d="M117,232.2c0.1-0.1,0.2-0.2,0.3-0.3c0.1-0.1,0.2-0.2,0.4-0.2c0.1-0.1,0.3-0.1,0.4-0.1
			c0.1,0,0.3,0,0.5,0c0.3,0,0.5,0,0.7,0.1c0.2,0.1,0.4,0.2,0.5,0.4c0.1,0.2,0.3,0.4,0.3,0.6c0.1,0.2,0.1,0.5,0.1,0.8v3.2h-1.4v-3.2
			c0-0.3-0.1-0.5-0.2-0.7s-0.3-0.2-0.6-0.2c-0.2,0-0.4,0-0.5,0.1c-0.2,0.1-0.3,0.2-0.5,0.3v3.7h-1.4v-5.1h0.8c0.2,0,0.3,0.1,0.3,0.2
			L117,232.2z"/>
		<path id="XMLID_88_" fill="#27AAE1" d="M123,230.2c0,0.1,0,0.2-0.1,0.3c0,0.1-0.1,0.2-0.2,0.3c-0.1,0.1-0.2,0.1-0.3,0.2
			c-0.1,0-0.2,0.1-0.3,0.1c-0.1,0-0.2,0-0.3-0.1s-0.2-0.1-0.3-0.2c-0.1-0.1-0.1-0.2-0.2-0.3c0-0.1-0.1-0.2-0.1-0.3s0-0.2,0.1-0.3
			s0.1-0.2,0.2-0.3c0.1-0.1,0.2-0.1,0.3-0.2s0.2-0.1,0.3-0.1c0.1,0,0.2,0,0.3,0.1c0.1,0,0.2,0.1,0.3,0.2c0.1,0.1,0.1,0.2,0.2,0.3
			S123,230.1,123,230.2z M122.8,231.6v5.1h-1.4v-5.1H122.8z"/>
		<path id="XMLID_91_" fill="#27AAE1" d="M125.2,232.2c0.1-0.1,0.2-0.2,0.3-0.3c0.1-0.1,0.2-0.2,0.4-0.2c0.1-0.1,0.3-0.1,0.4-0.1
			c0.1,0,0.3,0,0.5,0c0.3,0,0.5,0,0.7,0.1c0.2,0.1,0.4,0.2,0.5,0.4c0.1,0.2,0.3,0.4,0.3,0.6c0.1,0.2,0.1,0.5,0.1,0.8v3.2h-1.4v-3.2
			c0-0.3-0.1-0.5-0.2-0.7s-0.3-0.2-0.6-0.2c-0.2,0-0.4,0-0.5,0.1c-0.2,0.1-0.3,0.2-0.5,0.3v3.7H124v-5.1h0.8c0.2,0,0.3,0.1,0.3,0.2
			L125.2,232.2z"/>
		<path id="XMLID_93_" fill="#27AAE1" d="M134.1,231.8v0.5c0,0.1,0,0.1-0.1,0.2c0,0-0.1,0.1-0.2,0.1l-0.4,0.1
			c0.1,0.2,0.1,0.3,0.1,0.5c0,0.3-0.1,0.5-0.2,0.7c-0.1,0.2-0.2,0.4-0.4,0.5s-0.4,0.3-0.6,0.3c-0.2,0.1-0.5,0.1-0.8,0.1
			c-0.2,0-0.4,0-0.5,0c-0.1,0.1-0.2,0.2-0.2,0.3c0,0.1,0,0.2,0.1,0.2s0.2,0.1,0.4,0.1s0.3,0,0.5,0c0.2,0,0.4,0,0.6,0
			c0.2,0,0.4,0,0.6,0.1s0.4,0.1,0.5,0.2s0.3,0.2,0.4,0.4c0.1,0.2,0.1,0.4,0.1,0.6c0,0.2-0.1,0.4-0.2,0.7s-0.3,0.4-0.5,0.6
			c-0.2,0.2-0.5,0.3-0.8,0.4c-0.3,0.1-0.7,0.2-1.1,0.2c-0.4,0-0.7,0-1-0.1s-0.5-0.2-0.7-0.3c-0.2-0.1-0.3-0.3-0.4-0.4
			c-0.1-0.2-0.1-0.3-0.1-0.5c0-0.2,0.1-0.4,0.2-0.6s0.3-0.3,0.6-0.4c-0.1-0.1-0.2-0.2-0.3-0.3c-0.1-0.1-0.1-0.3-0.1-0.5
			c0-0.2,0.1-0.3,0.2-0.5c0.1-0.2,0.3-0.3,0.5-0.4c-0.3-0.1-0.5-0.3-0.6-0.6c-0.2-0.2-0.2-0.5-0.2-0.8c0-0.3,0.1-0.5,0.2-0.7
			c0.1-0.2,0.2-0.4,0.4-0.5c0.2-0.1,0.4-0.3,0.7-0.3c0.3-0.1,0.5-0.1,0.8-0.1c0.4,0,0.8,0.1,1.2,0.3H134.1z M132.8,237
			c0-0.1,0-0.2-0.1-0.2c-0.1-0.1-0.1-0.1-0.2-0.1c-0.1,0-0.2-0.1-0.3-0.1c-0.1,0-0.3,0-0.4,0c-0.1,0-0.3,0-0.5,0s-0.3,0-0.5,0
			c-0.1,0.1-0.2,0.2-0.3,0.2c-0.1,0.1-0.1,0.2-0.1,0.3c0,0.1,0,0.2,0.1,0.2c0,0.1,0.1,0.1,0.2,0.2c0.1,0,0.2,0.1,0.4,0.1
			c0.1,0,0.3,0,0.5,0c0.2,0,0.4,0,0.6,0c0.2,0,0.3-0.1,0.4-0.1c0.1-0.1,0.2-0.1,0.2-0.2C132.8,237.1,132.8,237,132.8,237z
			 M131.5,234c0.3,0,0.5-0.1,0.6-0.2c0.1-0.1,0.2-0.3,0.2-0.5c0-0.2-0.1-0.4-0.2-0.6s-0.3-0.2-0.6-0.2c-0.3,0-0.5,0.1-0.6,0.2
			c-0.1,0.1-0.2,0.3-0.2,0.6c0,0.2,0.1,0.4,0.2,0.5S131.2,234,131.5,234z"/>
		<path id="XMLID_97_" fill="#6D6E71" d="M137.9,236.8v-4.3l-0.6-0.1c-0.1,0-0.1,0-0.2-0.1c0,0-0.1-0.1-0.1-0.2v-0.4h0.8v-0.5
			c0-0.3,0-0.5,0.1-0.8s0.2-0.4,0.3-0.6s0.3-0.3,0.5-0.3c0.2-0.1,0.4-0.1,0.7-0.1c0.2,0,0.4,0,0.6,0.1l0,0.4c0,0.1-0.1,0.1-0.1,0.1
			c-0.1,0-0.2,0-0.3,0c-0.2,0-0.3,0-0.4,0.1c-0.1,0-0.2,0.1-0.3,0.2c-0.1,0.1-0.2,0.2-0.2,0.4c0,0.1-0.1,0.3-0.1,0.5v0.5h1.4v0.6
			h-1.4v4.3H137.9z"/>
		<path id="XMLID_99_" fill="#6D6E71" d="M142.9,231.7c0.4,0,0.7,0.1,1,0.2s0.5,0.3,0.8,0.5s0.4,0.5,0.5,0.8
			c0.1,0.3,0.2,0.7,0.2,1.1c0,0.4-0.1,0.8-0.2,1.1c-0.1,0.3-0.3,0.6-0.5,0.8s-0.5,0.4-0.8,0.5c-0.3,0.1-0.6,0.2-1,0.2
			c-0.4,0-0.7-0.1-1-0.2c-0.3-0.1-0.5-0.3-0.8-0.5s-0.4-0.5-0.5-0.8c-0.1-0.3-0.2-0.7-0.2-1.1c0-0.4,0.1-0.7,0.2-1.1
			c0.1-0.3,0.3-0.6,0.5-0.8s0.5-0.4,0.8-0.5C142.2,231.7,142.6,231.7,142.9,231.7z M142.9,236.1c0.5,0,0.9-0.2,1.1-0.5
			c0.2-0.3,0.4-0.8,0.4-1.4c0-0.6-0.1-1.1-0.4-1.4c-0.2-0.3-0.6-0.5-1.1-0.5c-0.3,0-0.5,0-0.7,0.1s-0.3,0.2-0.5,0.4
			c-0.1,0.2-0.2,0.4-0.3,0.6c-0.1,0.2-0.1,0.5-0.1,0.8c0,0.6,0.1,1.1,0.4,1.4C142.1,236,142.4,236.1,142.9,236.1z"/>
		<path id="XMLID_102_" fill="#6D6E71" d="M147.3,232.7c0.2-0.3,0.4-0.6,0.6-0.8c0.2-0.2,0.5-0.3,0.8-0.3c0.1,0,0.2,0,0.3,0
			c0.1,0,0.2,0.1,0.3,0.1l-0.1,0.7c0,0.1-0.1,0.1-0.1,0.1c0,0-0.1,0-0.2,0s-0.2,0-0.3,0c-0.2,0-0.3,0-0.4,0.1
			c-0.1,0-0.2,0.1-0.3,0.2c-0.1,0.1-0.2,0.2-0.3,0.3c-0.1,0.1-0.1,0.3-0.2,0.5v3.2h-0.9v-5h0.5c0.1,0,0.2,0,0.2,0.1s0.1,0.1,0.1,0.2
			L147.3,232.7z"/>
		<path id="XMLID_104_" fill="#6D6E71" d="M156.5,231.7l-2.8,6.5c0,0.1-0.1,0.1-0.1,0.2c0,0-0.1,0.1-0.2,0.1h-0.7l0.9-2l-2.1-4.7
			h0.8c0.1,0,0.1,0,0.2,0.1c0,0,0.1,0.1,0.1,0.1l1.3,3.2c0.1,0.1,0.1,0.3,0.1,0.4c0-0.2,0.1-0.3,0.1-0.4l1.3-3.2
			c0-0.1,0.1-0.1,0.1-0.1c0,0,0.1-0.1,0.2-0.1H156.5z"/>
		<path id="XMLID_106_" fill="#6D6E71" d="M159.2,231.7c0.4,0,0.7,0.1,1,0.2s0.5,0.3,0.8,0.5s0.4,0.5,0.5,0.8
			c0.1,0.3,0.2,0.7,0.2,1.1c0,0.4-0.1,0.8-0.2,1.1c-0.1,0.3-0.3,0.6-0.5,0.8s-0.5,0.4-0.8,0.5c-0.3,0.1-0.6,0.2-1,0.2
			c-0.4,0-0.7-0.1-1-0.2c-0.3-0.1-0.5-0.3-0.8-0.5s-0.4-0.5-0.5-0.8c-0.1-0.3-0.2-0.7-0.2-1.1c0-0.4,0.1-0.7,0.2-1.1
			c0.1-0.3,0.3-0.6,0.5-0.8s0.5-0.4,0.8-0.5C158.5,231.7,158.8,231.7,159.2,231.7z M159.2,236.1c0.5,0,0.9-0.2,1.1-0.5
			c0.2-0.3,0.4-0.8,0.4-1.4c0-0.6-0.1-1.1-0.4-1.4c-0.2-0.3-0.6-0.5-1.1-0.5c-0.3,0-0.5,0-0.7,0.1s-0.3,0.2-0.5,0.4
			c-0.1,0.2-0.2,0.4-0.3,0.6c-0.1,0.2-0.1,0.5-0.1,0.8c0,0.6,0.1,1.1,0.4,1.4C158.3,236,158.7,236.1,159.2,236.1z"/>
		<path id="XMLID_109_" fill="#6D6E71" d="M166.8,231.7v5h-0.5c-0.1,0-0.2-0.1-0.2-0.2L166,236c-0.2,0.2-0.5,0.4-0.7,0.6
			c-0.3,0.1-0.6,0.2-0.9,0.2c-0.3,0-0.5,0-0.7-0.1c-0.2-0.1-0.4-0.2-0.5-0.4c-0.1-0.2-0.2-0.4-0.3-0.6c-0.1-0.2-0.1-0.5-0.1-0.8
			v-3.2h0.9v3.2c0,0.4,0.1,0.7,0.3,0.9c0.2,0.2,0.4,0.3,0.8,0.3c0.3,0,0.5-0.1,0.7-0.2c0.2-0.1,0.4-0.3,0.6-0.5v-3.7H166.8z"/>
		<path id="XMLID_111_" fill="#6D6E71" d="M170.6,232.4c0.3-0.3,0.6-0.5,0.9-0.6s0.7-0.2,1.1-0.2c0.3,0,0.5,0,0.7,0.1
			c0.2,0.1,0.4,0.2,0.5,0.4c0.1,0.2,0.3,0.4,0.3,0.6c0.1,0.2,0.1,0.5,0.1,0.8v3.2H174c-0.1,0-0.2,0-0.2,0c0,0-0.1-0.1-0.1-0.2
			l-0.1-0.5c-0.1,0.1-0.3,0.2-0.4,0.3c-0.1,0.1-0.3,0.2-0.4,0.2s-0.3,0.1-0.4,0.1c-0.2,0-0.3,0.1-0.5,0.1c-0.2,0-0.4,0-0.5-0.1
			c-0.2-0.1-0.3-0.1-0.4-0.2c-0.1-0.1-0.2-0.2-0.3-0.4s-0.1-0.4-0.1-0.6c0-0.2,0.1-0.4,0.2-0.6s0.3-0.3,0.5-0.5
			c0.2-0.1,0.6-0.3,1-0.3c0.4-0.1,0.9-0.1,1.4-0.2v-0.4c0-0.4-0.1-0.7-0.3-0.9c-0.2-0.2-0.4-0.3-0.7-0.3c-0.2,0-0.4,0-0.5,0.1
			c-0.1,0.1-0.3,0.1-0.4,0.2c-0.1,0.1-0.2,0.1-0.3,0.2c-0.1,0.1-0.2,0.1-0.2,0.1c-0.1,0-0.1,0-0.2,0s-0.1-0.1-0.1-0.1L170.6,232.4z
			 M173.5,234.5c-0.4,0-0.8,0-1,0.1c-0.3,0.1-0.5,0.1-0.7,0.2c-0.2,0.1-0.3,0.2-0.4,0.3s-0.1,0.2-0.1,0.4c0,0.1,0,0.2,0.1,0.3
			s0.1,0.2,0.2,0.2c0.1,0.1,0.2,0.1,0.3,0.1s0.2,0,0.3,0c0.2,0,0.3,0,0.4,0s0.3-0.1,0.4-0.1c0.1-0.1,0.2-0.1,0.3-0.2
			c0.1-0.1,0.2-0.2,0.3-0.3V234.5z"/>
		<path id="XMLID_114_" fill="#6D6E71" d="M176.5,232.5c0.1-0.1,0.2-0.2,0.3-0.3s0.3-0.2,0.4-0.3c0.1-0.1,0.3-0.1,0.4-0.2
			c0.2,0,0.3-0.1,0.5-0.1c0.3,0,0.5,0,0.7,0.1c0.2,0.1,0.4,0.2,0.5,0.4c0.1,0.2,0.2,0.4,0.3,0.6c0.1,0.2,0.1,0.5,0.1,0.8v3.2H179
			v-3.2c0-0.4-0.1-0.7-0.3-0.9c-0.2-0.2-0.4-0.3-0.8-0.3c-0.3,0-0.5,0.1-0.7,0.2c-0.2,0.1-0.4,0.3-0.6,0.5v3.7h-0.9v-5h0.5
			c0.1,0,0.2,0.1,0.2,0.2L176.5,232.5z"/>
		<path id="XMLID_116_" fill="#6D6E71" d="M185.4,229.5v7.3h-0.5c-0.1,0-0.2-0.1-0.2-0.2l-0.1-0.6c-0.2,0.3-0.5,0.5-0.7,0.6
			c-0.3,0.2-0.6,0.2-1,0.2c-0.3,0-0.5-0.1-0.8-0.2s-0.4-0.3-0.6-0.5c-0.2-0.2-0.3-0.5-0.4-0.8s-0.1-0.7-0.1-1.1c0-0.4,0-0.7,0.1-1
			c0.1-0.3,0.2-0.6,0.4-0.8c0.2-0.2,0.4-0.4,0.7-0.6c0.3-0.1,0.6-0.2,0.9-0.2c0.3,0,0.6,0.1,0.8,0.2c0.2,0.1,0.4,0.2,0.6,0.4v-2.8
			H185.4z M184.5,232.9c-0.2-0.2-0.3-0.4-0.5-0.5c-0.2-0.1-0.4-0.1-0.6-0.1c-0.5,0-0.8,0.2-1.1,0.5c-0.3,0.3-0.4,0.8-0.4,1.4
			c0,0.3,0,0.6,0.1,0.8c0.1,0.2,0.1,0.4,0.2,0.6c0.1,0.2,0.2,0.3,0.4,0.3s0.3,0.1,0.5,0.1c0.3,0,0.5-0.1,0.8-0.2
			c0.2-0.1,0.4-0.3,0.6-0.6V232.9z"/>
		<path id="XMLID_119_" fill="#6D6E71" d="M193.4,231.7l-2.8,6.5c0,0.1-0.1,0.1-0.1,0.2c0,0-0.1,0.1-0.2,0.1h-0.7l0.9-2l-2.1-4.7
			h0.8c0.1,0,0.1,0,0.2,0.1c0,0,0.1,0.1,0.1,0.1l1.3,3.2c0.1,0.1,0.1,0.3,0.1,0.4c0-0.2,0.1-0.3,0.1-0.4l1.3-3.2
			c0-0.1,0.1-0.1,0.1-0.1c0,0,0.1-0.1,0.2-0.1H193.4z"/>
		<path id="XMLID_121_" fill="#6D6E71" d="M196.1,231.7c0.4,0,0.7,0.1,1,0.2s0.5,0.3,0.8,0.5s0.4,0.5,0.5,0.8
			c0.1,0.3,0.2,0.7,0.2,1.1c0,0.4-0.1,0.8-0.2,1.1c-0.1,0.3-0.3,0.6-0.5,0.8s-0.5,0.4-0.8,0.5c-0.3,0.1-0.6,0.2-1,0.2
			c-0.4,0-0.7-0.1-1-0.2c-0.3-0.1-0.5-0.3-0.8-0.5s-0.4-0.5-0.5-0.8c-0.1-0.3-0.2-0.7-0.2-1.1c0-0.4,0.1-0.7,0.2-1.1
			c0.1-0.3,0.3-0.6,0.5-0.8s0.5-0.4,0.8-0.5C195.4,231.7,195.8,231.7,196.1,231.7z M196.1,236.1c0.5,0,0.9-0.2,1.1-0.5
			c0.2-0.3,0.4-0.8,0.4-1.4c0-0.6-0.1-1.1-0.4-1.4c-0.2-0.3-0.6-0.5-1.1-0.5c-0.3,0-0.5,0-0.7,0.1s-0.3,0.2-0.5,0.4
			c-0.1,0.2-0.2,0.4-0.3,0.6c-0.1,0.2-0.1,0.5-0.1,0.8c0,0.6,0.1,1.1,0.4,1.4C195.3,236,195.6,236.1,196.1,236.1z"/>
		<path id="XMLID_124_" fill="#6D6E71" d="M203.8,231.7v5h-0.5c-0.1,0-0.2-0.1-0.2-0.2l-0.1-0.5c-0.2,0.2-0.5,0.4-0.7,0.6
			c-0.3,0.1-0.6,0.2-0.9,0.2c-0.3,0-0.5,0-0.7-0.1c-0.2-0.1-0.4-0.2-0.5-0.4c-0.1-0.2-0.2-0.4-0.3-0.6c-0.1-0.2-0.1-0.5-0.1-0.8
			v-3.2h0.9v3.2c0,0.4,0.1,0.7,0.3,0.9c0.2,0.2,0.4,0.3,0.8,0.3c0.3,0,0.5-0.1,0.7-0.2c0.2-0.1,0.4-0.3,0.6-0.5v-3.7H203.8z"/>
		<path id="XMLID_126_" fill="#6D6E71" d="M206,232.7c0.2-0.3,0.4-0.6,0.6-0.8c0.2-0.2,0.5-0.3,0.8-0.3c0.1,0,0.2,0,0.3,0
			c0.1,0,0.2,0.1,0.3,0.1l-0.1,0.7c0,0.1-0.1,0.1-0.1,0.1c0,0-0.1,0-0.2,0s-0.2,0-0.3,0c-0.2,0-0.3,0-0.4,0.1
			c-0.1,0-0.2,0.1-0.3,0.2c-0.1,0.1-0.2,0.2-0.3,0.3c-0.1,0.1-0.1,0.3-0.2,0.5v3.2h-0.9v-5h0.5c0.1,0,0.2,0,0.2,0.1s0.1,0.1,0.1,0.2
			L206,232.7z"/>
		<path id="XMLID_128_" fill="#6D6E71" d="M211.4,236.8v-4.3l-0.6-0.1c-0.1,0-0.1,0-0.2-0.1c0,0-0.1-0.1-0.1-0.2v-0.4h0.8v-0.5
			c0-0.3,0-0.5,0.1-0.8s0.2-0.4,0.3-0.6s0.3-0.3,0.5-0.3c0.2-0.1,0.4-0.1,0.7-0.1c0.2,0,0.4,0,0.6,0.1l0,0.4c0,0.1-0.1,0.1-0.1,0.1
			c-0.1,0-0.2,0-0.3,0c-0.2,0-0.3,0-0.4,0.1c-0.1,0-0.2,0.1-0.3,0.2c-0.1,0.1-0.2,0.2-0.2,0.4c0,0.1-0.1,0.3-0.1,0.5v0.5h1.4v0.6
			h-1.4v4.3H211.4z"/>
		<path id="XMLID_130_" fill="#6D6E71" d="M215.4,232.7c0.2-0.3,0.4-0.6,0.6-0.8c0.2-0.2,0.5-0.3,0.8-0.3c0.1,0,0.2,0,0.3,0
			c0.1,0,0.2,0.1,0.3,0.1l-0.1,0.7c0,0.1-0.1,0.1-0.1,0.1c0,0-0.1,0-0.2,0s-0.2,0-0.3,0c-0.2,0-0.3,0-0.4,0.1
			c-0.1,0-0.2,0.1-0.3,0.2c-0.1,0.1-0.2,0.2-0.3,0.3c-0.1,0.1-0.1,0.3-0.2,0.5v3.2h-0.9v-5h0.5c0.1,0,0.2,0,0.2,0.1s0.1,0.1,0.1,0.2
			L215.4,232.7z"/>
		<path id="XMLID_132_" fill="#6D6E71" d="M219.3,230.2c0,0.1,0,0.2-0.1,0.2c0,0.1-0.1,0.1-0.1,0.2c-0.1,0.1-0.1,0.1-0.2,0.1
			c-0.1,0-0.2,0-0.2,0s-0.2,0-0.2,0s-0.1-0.1-0.2-0.1c-0.1-0.1-0.1-0.1-0.1-0.2c0-0.1,0-0.2,0-0.2c0-0.1,0-0.2,0-0.2
			c0-0.1,0.1-0.1,0.1-0.2c0.1-0.1,0.1-0.1,0.2-0.1s0.2,0,0.2,0s0.2,0,0.2,0c0.1,0,0.1,0.1,0.2,0.1c0.1,0.1,0.1,0.1,0.1,0.2
			C219.3,230,219.3,230.1,219.3,230.2z M219.1,231.7v5h-0.9v-5H219.1z"/>
		<path id="XMLID_135_" fill="#6D6E71" d="M224.6,236c-0.1,0.1-0.2,0.2-0.4,0.3c-0.2,0.1-0.3,0.2-0.5,0.2c-0.2,0.1-0.4,0.1-0.5,0.1
			c-0.2,0-0.4,0-0.5,0c-0.3,0-0.7-0.1-1-0.2s-0.5-0.3-0.8-0.5c-0.2-0.2-0.4-0.5-0.5-0.8c-0.1-0.3-0.2-0.7-0.2-1.1
			c0-0.3,0.1-0.7,0.2-1s0.3-0.6,0.5-0.8s0.4-0.4,0.7-0.5c0.3-0.1,0.6-0.2,1-0.2c0.3,0,0.6,0.1,0.8,0.2s0.5,0.2,0.7,0.4
			c0.2,0.2,0.3,0.4,0.4,0.7c0.1,0.3,0.2,0.6,0.2,1c0,0.1,0,0.2,0,0.3c0,0-0.1,0.1-0.2,0.1h-3.4c0,0.3,0.1,0.6,0.1,0.8
			s0.2,0.4,0.3,0.6c0.1,0.2,0.3,0.3,0.5,0.4c0.2,0.1,0.4,0.1,0.6,0.1c0.2,0,0.4,0,0.6-0.1c0.2-0.1,0.3-0.1,0.4-0.2
			c0.1-0.1,0.2-0.1,0.3-0.2c0.1-0.1,0.1-0.1,0.2-0.1c0.1,0,0.1,0,0.2,0.1L224.6,236z M223.9,233.7c0-0.2,0-0.4-0.1-0.6
			s-0.1-0.3-0.3-0.4c-0.1-0.1-0.2-0.2-0.4-0.3c-0.2-0.1-0.3-0.1-0.5-0.1c-0.4,0-0.8,0.1-1,0.4c-0.2,0.2-0.4,0.6-0.5,1H223.9z"/>
		<path id="XMLID_138_" fill="#6D6E71" d="M226.6,232.5c0.1-0.1,0.2-0.2,0.3-0.3s0.3-0.2,0.4-0.3c0.1-0.1,0.3-0.1,0.4-0.2
			c0.2,0,0.3-0.1,0.5-0.1c0.3,0,0.5,0,0.7,0.1c0.2,0.1,0.4,0.2,0.5,0.4c0.1,0.2,0.2,0.4,0.3,0.6c0.1,0.2,0.1,0.5,0.1,0.8v3.2h-0.9
			v-3.2c0-0.4-0.1-0.7-0.3-0.9c-0.2-0.2-0.4-0.3-0.8-0.3c-0.3,0-0.5,0.1-0.7,0.2c-0.2,0.1-0.4,0.3-0.6,0.5v3.7h-0.9v-5h0.5
			c0.1,0,0.2,0.1,0.2,0.2L226.6,232.5z"/>
		<path id="XMLID_140_" fill="#6D6E71" d="M235.5,229.5v7.3h-0.5c-0.1,0-0.2-0.1-0.2-0.2l-0.1-0.6c-0.2,0.3-0.5,0.5-0.7,0.6
			c-0.3,0.2-0.6,0.2-1,0.2c-0.3,0-0.5-0.1-0.8-0.2s-0.4-0.3-0.6-0.5c-0.2-0.2-0.3-0.5-0.4-0.8s-0.1-0.7-0.1-1.1c0-0.4,0-0.7,0.1-1
			c0.1-0.3,0.2-0.6,0.4-0.8c0.2-0.2,0.4-0.4,0.7-0.6c0.3-0.1,0.6-0.2,0.9-0.2c0.3,0,0.6,0.1,0.8,0.2c0.2,0.1,0.4,0.2,0.6,0.4v-2.8
			H235.5z M234.6,232.9c-0.2-0.2-0.3-0.4-0.5-0.5c-0.2-0.1-0.4-0.1-0.6-0.1c-0.5,0-0.8,0.2-1.1,0.5c-0.3,0.3-0.4,0.8-0.4,1.4
			c0,0.3,0,0.6,0.1,0.8c0.1,0.2,0.1,0.4,0.2,0.6c0.1,0.2,0.2,0.3,0.4,0.3s0.3,0.1,0.5,0.1c0.3,0,0.5-0.1,0.8-0.2
			c0.2-0.1,0.4-0.3,0.6-0.6V232.9z"/>
	</g>
	<g id="XMLID_257_">
		<path id="XMLID_57_" fill="#EF4B4B" d="M88.4,200.3v3.6H75.1v-3.6h4.5v-11.7c0-0.3,0-0.6,0-0.9c0-0.3,0-0.6,0-0.9l-2.6,2.2
			c-0.2,0.2-0.5,0.3-0.7,0.3s-0.4,0-0.6,0s-0.4-0.1-0.5-0.2c-0.2-0.1-0.3-0.2-0.4-0.3l-1.6-2.1l7.2-6.1h4.1v19.7H88.4z"/>
		<path id="XMLID_59_" fill="#EF4B4B" d="M105.7,199.4c0.5,0,1,0.1,1.3,0.4c0.3,0.3,0.5,0.7,0.5,1.2v2.9H91.1v-1.6
			c0-0.3,0.1-0.6,0.2-1s0.4-0.7,0.7-1l6.7-6.7c0.6-0.6,1.1-1.1,1.5-1.6c0.4-0.5,0.8-1,1.1-1.5c0.3-0.5,0.5-1,0.6-1.5
			c0.1-0.5,0.2-1,0.2-1.6c0-0.9-0.2-1.6-0.7-2.1c-0.4-0.5-1.1-0.7-2-0.7c-0.7,0-1.4,0.2-1.9,0.6c-0.5,0.4-0.9,0.9-1,1.4
			c-0.2,0.6-0.5,1-0.9,1.2c-0.4,0.2-0.9,0.2-1.5,0.1l-2.6-0.5c0.2-1.2,0.5-2.2,1-3c0.5-0.9,1.1-1.6,1.8-2.2s1.5-1,2.5-1.3
			c0.9-0.3,1.9-0.4,3-0.4c1.1,0,2.2,0.2,3.1,0.5s1.7,0.8,2.4,1.4c0.6,0.6,1.1,1.3,1.5,2.1c0.3,0.8,0.5,1.7,0.5,2.7
			c0,0.9-0.1,1.6-0.4,2.4c-0.2,0.7-0.6,1.4-1,2.1c-0.4,0.7-0.9,1.3-1.4,1.9c-0.5,0.6-1.1,1.2-1.7,1.9L98,200
			c0.6-0.2,1.2-0.3,1.7-0.4s1.1-0.1,1.6-0.1H105.7z"/>
		<path id="XMLID_61_" fill="#EF4B4B" d="M126.5,192.2c0,2-0.2,3.8-0.7,5.3c-0.4,1.5-1,2.7-1.8,3.7c-0.8,1-1.7,1.7-2.7,2.2
			c-1.1,0.5-2.2,0.7-3.4,0.7c-1.2,0-2.4-0.2-3.4-0.7s-2-1.2-2.7-2.2s-1.4-2.2-1.8-3.7c-0.4-1.5-0.6-3.2-0.6-5.3s0.2-3.8,0.6-5.3
			c0.4-1.5,1-2.7,1.8-3.7c0.8-1,1.7-1.7,2.7-2.2c1-0.5,2.2-0.7,3.4-0.7c1.2,0,2.4,0.2,3.4,0.7c1.1,0.5,2,1.2,2.7,2.2
			c0.8,1,1.4,2.2,1.8,3.7C126.3,188.4,126.5,190.2,126.5,192.2z M121.4,192.2c0-1.6-0.1-2.9-0.3-3.9c-0.2-1-0.5-1.8-0.8-2.4
			s-0.7-1-1.1-1.2c-0.4-0.2-0.9-0.3-1.3-0.3c-0.4,0-0.9,0.1-1.3,0.3s-0.8,0.6-1.1,1.2s-0.6,1.4-0.8,2.4c-0.2,1-0.3,2.3-0.3,3.9
			c0,1.6,0.1,2.9,0.3,4c0.2,1,0.5,1.8,0.8,2.4c0.3,0.6,0.7,1,1.1,1.2c0.4,0.2,0.8,0.3,1.3,0.3c0.4,0,0.9-0.1,1.3-0.3
			c0.4-0.2,0.8-0.6,1.1-1.2c0.3-0.6,0.6-1.4,0.8-2.4C121.3,195.2,121.4,193.9,121.4,192.2z"/>
	</g>
	<g id="XMLID_256_">
		<path id="XMLID_56_" fill="#6D6E71" d="M69.9,209.5c-1,0-2.1-0.6-2.5-1.6c-0.7-1.4-0.1-3.1,1.3-3.8l59-28.9
			c1.4-0.7,3.1-0.1,3.8,1.3c0.7,1.4,0.1,3.1-1.3,3.8l-59,28.9C70.7,209.4,70.3,209.5,69.9,209.5z"/>
	</g>
	<g id="XMLID_252_">
		<g id="XMLID_254_">
			<path id="XMLID_342_" fill="#6D6E71" d="M189.9,222.3h-76.7c-3.1,0-5.7-2.5-5.7-5.7l0,0c0-3.1,2.5-5.7,5.7-5.7h76.7
				c3.1,0,5.7,2.5,5.7,5.7l0,0C195.6,219.7,193,222.3,189.9,222.3z"/>
		</g>
		<g id="XMLID_253_">
			<path id="XMLID_12_" fill="#FFFFFF" d="M116.5,215.6c0,0.1-0.1,0.1-0.1,0.1c0,0-0.1,0-0.1,0c0,0-0.1-0.1-0.2-0.1
				s-0.1-0.1-0.2-0.1c-0.1,0-0.2,0-0.3,0c-0.1,0-0.2,0-0.3,0c-0.1,0-0.2,0.1-0.2,0.1c-0.1,0-0.1,0.1-0.1,0.2s0,0.1,0,0.2
				c0,0.1,0,0.2,0.1,0.2c0.1,0.1,0.1,0.1,0.2,0.2c0.1,0,0.2,0.1,0.3,0.1c0.1,0,0.2,0.1,0.3,0.1s0.2,0.1,0.3,0.1s0.2,0.1,0.3,0.2
				c0.1,0.1,0.2,0.2,0.2,0.3s0.1,0.2,0.1,0.4c0,0.2,0,0.3-0.1,0.5c-0.1,0.1-0.1,0.3-0.3,0.4c-0.1,0.1-0.3,0.2-0.4,0.2
				c-0.2,0.1-0.4,0.1-0.6,0.1c-0.3,0-0.5,0-0.7-0.1c-0.2-0.1-0.4-0.2-0.5-0.3l0.2-0.2c0,0,0-0.1,0.1-0.1c0,0,0.1,0,0.1,0
				c0,0,0.1,0,0.1,0s0.1,0.1,0.2,0.1c0.1,0,0.2,0.1,0.2,0.1c0.1,0,0.2,0,0.4,0c0.1,0,0.2,0,0.3,0c0.1,0,0.2-0.1,0.2-0.1
				c0.1-0.1,0.1-0.1,0.1-0.2c0-0.1,0-0.1,0-0.2c0-0.1,0-0.2-0.1-0.2c-0.1-0.1-0.1-0.1-0.2-0.2c-0.1,0-0.2-0.1-0.3-0.1
				c-0.1,0-0.2-0.1-0.3-0.1c-0.1,0-0.2-0.1-0.3-0.1c-0.1,0-0.2-0.1-0.3-0.2c-0.1-0.1-0.2-0.2-0.2-0.3c-0.1-0.1-0.1-0.2-0.1-0.4
				c0-0.1,0-0.3,0.1-0.4c0.1-0.1,0.1-0.2,0.3-0.3c0.1-0.1,0.2-0.2,0.4-0.2c0.2-0.1,0.3-0.1,0.5-0.1c0.2,0,0.5,0,0.6,0.1
				c0.2,0.1,0.4,0.2,0.5,0.3L116.5,215.6z"/>
			<path id="XMLID_14_" fill="#FFFFFF" d="M118.1,215.6c0.2-0.2,0.3-0.3,0.5-0.5c0.2-0.1,0.4-0.2,0.7-0.2c0.2,0,0.4,0,0.6,0.1
				c0.2,0.1,0.3,0.2,0.4,0.4c0.1,0.2,0.2,0.4,0.3,0.6c0.1,0.2,0.1,0.5,0.1,0.8c0,0.3,0,0.5-0.1,0.7s-0.2,0.4-0.3,0.6
				c-0.1,0.2-0.3,0.3-0.5,0.4s-0.4,0.1-0.7,0.1c-0.2,0-0.4,0-0.6-0.1c-0.2-0.1-0.3-0.2-0.4-0.3v1.6h-0.6V215h0.4
				c0.1,0,0.1,0,0.2,0.1L118.1,215.6z M118.1,217.8c0.1,0.2,0.2,0.3,0.4,0.3s0.3,0.1,0.5,0.1c0.3,0,0.6-0.1,0.8-0.4
				c0.2-0.2,0.3-0.6,0.3-1c0-0.2,0-0.4-0.1-0.6c0-0.2-0.1-0.3-0.2-0.4c-0.1-0.1-0.2-0.2-0.3-0.2c-0.1,0-0.2-0.1-0.4-0.1
				c-0.2,0-0.4,0-0.5,0.1c-0.2,0.1-0.3,0.2-0.4,0.4V217.8z"/>
			<path id="XMLID_17_" fill="#FFFFFF" d="M124.4,218.2c-0.1,0.1-0.2,0.2-0.3,0.2c-0.1,0.1-0.2,0.1-0.4,0.2c-0.1,0-0.3,0.1-0.4,0.1
				c-0.1,0-0.3,0-0.4,0c-0.3,0-0.5,0-0.7-0.1c-0.2-0.1-0.4-0.2-0.5-0.4c-0.2-0.2-0.3-0.4-0.4-0.6s-0.1-0.5-0.1-0.8
				c0-0.3,0-0.5,0.1-0.7c0.1-0.2,0.2-0.4,0.3-0.6c0.1-0.2,0.3-0.3,0.5-0.4c0.2-0.1,0.4-0.1,0.7-0.1c0.2,0,0.4,0,0.6,0.1
				c0.2,0.1,0.3,0.2,0.5,0.3s0.2,0.3,0.3,0.5c0.1,0.2,0.1,0.4,0.1,0.7c0,0.1,0,0.2,0,0.2s-0.1,0-0.1,0h-2.4c0,0.2,0,0.4,0.1,0.6
				c0.1,0.2,0.1,0.3,0.2,0.4c0.1,0.1,0.2,0.2,0.4,0.3c0.1,0.1,0.3,0.1,0.5,0.1c0.2,0,0.3,0,0.4-0.1c0.1,0,0.2-0.1,0.3-0.1
				c0.1,0,0.2-0.1,0.2-0.1c0.1,0,0.1-0.1,0.1-0.1c0.1,0,0.1,0,0.1,0.1L124.4,218.2z M123.9,216.5c0-0.1,0-0.3-0.1-0.4
				c0-0.1-0.1-0.2-0.2-0.3c-0.1-0.1-0.2-0.2-0.3-0.2c-0.1,0-0.2-0.1-0.4-0.1c-0.3,0-0.5,0.1-0.7,0.3c-0.2,0.2-0.3,0.4-0.3,0.7H123.9
				z"/>
			<path id="XMLID_20_" fill="#FFFFFF" d="M127.8,215.7C127.8,215.7,127.7,215.7,127.8,215.7c-0.1,0.1-0.1,0.1-0.1,0.1
				c0,0-0.1,0-0.1,0s-0.1-0.1-0.2-0.1c-0.1,0-0.1-0.1-0.2-0.1c-0.1,0-0.2,0-0.3,0c-0.2,0-0.3,0-0.5,0.1c-0.1,0.1-0.3,0.2-0.3,0.3
				c-0.1,0.1-0.2,0.3-0.2,0.4c0,0.2-0.1,0.4-0.1,0.6c0,0.2,0,0.4,0.1,0.6c0.1,0.2,0.1,0.3,0.2,0.4c0.1,0.1,0.2,0.2,0.3,0.3
				c0.1,0.1,0.3,0.1,0.4,0.1c0.2,0,0.3,0,0.4-0.1s0.2-0.1,0.2-0.1c0.1,0,0.1-0.1,0.2-0.1s0.1-0.1,0.1-0.1c0.1,0,0.1,0,0.1,0.1
				l0.2,0.2c-0.1,0.1-0.2,0.2-0.3,0.3s-0.2,0.1-0.3,0.2c-0.1,0-0.2,0.1-0.4,0.1c-0.1,0-0.3,0-0.4,0c-0.2,0-0.4,0-0.6-0.1
				c-0.2-0.1-0.4-0.2-0.5-0.4c-0.1-0.2-0.3-0.4-0.3-0.6c-0.1-0.2-0.1-0.5-0.1-0.8c0-0.3,0-0.5,0.1-0.7s0.2-0.4,0.3-0.6
				s0.3-0.3,0.5-0.4c0.2-0.1,0.5-0.1,0.7-0.1c0.3,0,0.5,0,0.7,0.1c0.2,0.1,0.4,0.2,0.5,0.3L127.8,215.7z"/>
			<path id="XMLID_22_" fill="#FFFFFF" d="M129.5,213.9c0,0.1,0,0.1,0,0.2c0,0.1-0.1,0.1-0.1,0.1c0,0-0.1,0.1-0.1,0.1
				c-0.1,0-0.1,0-0.2,0c-0.1,0-0.1,0-0.2,0s-0.1-0.1-0.1-0.1c0,0-0.1-0.1-0.1-0.1c0-0.1,0-0.1,0-0.2s0-0.1,0-0.2
				c0-0.1,0.1-0.1,0.1-0.1c0,0,0.1-0.1,0.1-0.1s0.1,0,0.2,0c0.1,0,0.1,0,0.2,0c0.1,0,0.1,0.1,0.1,0.1c0,0,0.1,0.1,0.1,0.1
				C129.5,213.8,129.5,213.8,129.5,213.9z M129.4,215v3.6h-0.6V215H129.4z"/>
			<path id="XMLID_25_" fill="#FFFFFF" d="M130.3,215.6c0.2-0.2,0.4-0.3,0.6-0.4s0.5-0.1,0.8-0.1c0.2,0,0.4,0,0.5,0.1
				c0.2,0.1,0.3,0.2,0.4,0.3s0.2,0.3,0.2,0.4c0.1,0.2,0.1,0.4,0.1,0.6v2.3h-0.3c-0.1,0-0.1,0-0.1,0c0,0-0.1-0.1-0.1-0.1l-0.1-0.3
				c-0.1,0.1-0.2,0.2-0.3,0.2s-0.2,0.1-0.3,0.2c-0.1,0-0.2,0.1-0.3,0.1s-0.2,0-0.4,0c-0.1,0-0.3,0-0.4-0.1c-0.1,0-0.2-0.1-0.3-0.2
				c-0.1-0.1-0.2-0.2-0.2-0.3c-0.1-0.1-0.1-0.3-0.1-0.4c0-0.1,0-0.3,0.1-0.4c0.1-0.1,0.2-0.3,0.4-0.4c0.2-0.1,0.4-0.2,0.7-0.3
				c0.3-0.1,0.6-0.1,1-0.1v-0.3c0-0.3-0.1-0.5-0.2-0.6c-0.1-0.1-0.3-0.2-0.5-0.2c-0.2,0-0.3,0-0.4,0.1s-0.2,0.1-0.3,0.1
				c-0.1,0-0.1,0.1-0.2,0.1c-0.1,0-0.1,0.1-0.2,0.1c0,0-0.1,0-0.1,0s-0.1-0.1-0.1-0.1L130.3,215.6z M132.4,217c-0.3,0-0.5,0-0.8,0.1
				c-0.2,0-0.4,0.1-0.5,0.1c-0.1,0.1-0.2,0.1-0.3,0.2c-0.1,0.1-0.1,0.2-0.1,0.3c0,0.1,0,0.2,0,0.2c0,0.1,0.1,0.1,0.1,0.2
				s0.1,0.1,0.2,0.1s0.2,0,0.2,0c0.1,0,0.2,0,0.3,0s0.2-0.1,0.3-0.1c0.1,0,0.2-0.1,0.2-0.2c0.1-0.1,0.1-0.1,0.2-0.2V217z"/>
			<path id="XMLID_28_" fill="#FFFFFF" d="M134.6,213.4v5.3H134v-5.3H134.6z"/>
			<path id="XMLID_30_" fill="#FFFFFF" d="M139,215c0.3,0,0.5,0,0.7,0.1c0.2,0.1,0.4,0.2,0.5,0.4c0.2,0.2,0.3,0.4,0.3,0.6
				s0.1,0.5,0.1,0.8c0,0.3,0,0.5-0.1,0.8s-0.2,0.4-0.3,0.6s-0.3,0.3-0.5,0.4c-0.2,0.1-0.5,0.1-0.7,0.1c-0.3,0-0.5,0-0.7-0.1
				c-0.2-0.1-0.4-0.2-0.5-0.4c-0.2-0.2-0.3-0.4-0.3-0.6s-0.1-0.5-0.1-0.8c0-0.3,0-0.5,0.1-0.8s0.2-0.4,0.3-0.6
				c0.2-0.2,0.3-0.3,0.5-0.4C138.5,215,138.8,215,139,215z M139,218.2c0.4,0,0.6-0.1,0.8-0.4c0.2-0.2,0.3-0.6,0.3-1
				c0-0.4-0.1-0.8-0.3-1s-0.4-0.4-0.8-0.4c-0.2,0-0.3,0-0.5,0.1c-0.1,0.1-0.2,0.2-0.3,0.3c-0.1,0.1-0.2,0.3-0.2,0.4
				s-0.1,0.4-0.1,0.6c0,0.4,0.1,0.8,0.3,1C138.4,218.1,138.7,218.2,139,218.2z"/>
			<path id="XMLID_33_" fill="#FFFFFF" d="M142.2,215.6c0.1-0.1,0.2-0.2,0.3-0.2c0.1-0.1,0.2-0.1,0.3-0.2c0.1-0.1,0.2-0.1,0.3-0.1
				c0.1,0,0.2,0,0.4,0c0.2,0,0.4,0,0.5,0.1s0.3,0.2,0.4,0.3c0.1,0.1,0.2,0.3,0.2,0.4c0.1,0.2,0.1,0.4,0.1,0.6v2.3h-0.6v-2.3
				c0-0.3-0.1-0.5-0.2-0.6c-0.1-0.2-0.3-0.2-0.6-0.2c-0.2,0-0.4,0-0.5,0.1c-0.2,0.1-0.3,0.2-0.5,0.4v2.7h-0.6V215h0.4
				c0.1,0,0.1,0,0.2,0.1L142.2,215.6z"/>
			<path id="XMLID_35_" fill="#FFFFFF" d="M152.9,213.5v5.1h-0.6v-3.8c0,0,0-0.1,0-0.2s0-0.1,0-0.2l-1.8,3.2
				c-0.1,0.1-0.1,0.2-0.3,0.2h-0.1c-0.1,0-0.2-0.1-0.3-0.2l-1.8-3.2c0,0.1,0,0.2,0,0.4v3.8h-0.6v-5.1h0.5c0.1,0,0.1,0,0.1,0
				c0,0,0.1,0,0.1,0.1l1.8,3.2c0,0.1,0.1,0.1,0.1,0.2c0,0.1,0.1,0.1,0.1,0.2c0-0.1,0-0.1,0.1-0.2s0.1-0.1,0.1-0.2l1.7-3.2
				c0-0.1,0.1-0.1,0.1-0.1c0,0,0.1,0,0.1,0H152.9z"/>
			<path id="XMLID_37_" fill="#FFFFFF" d="M153.8,215.6c0.2-0.2,0.4-0.3,0.6-0.4s0.5-0.1,0.8-0.1c0.2,0,0.4,0,0.5,0.1
				c0.2,0.1,0.3,0.2,0.4,0.3s0.2,0.3,0.2,0.4c0.1,0.2,0.1,0.4,0.1,0.6v2.3h-0.3c-0.1,0-0.1,0-0.1,0c0,0-0.1-0.1-0.1-0.1l-0.1-0.3
				c-0.1,0.1-0.2,0.2-0.3,0.2s-0.2,0.1-0.3,0.2c-0.1,0-0.2,0.1-0.3,0.1s-0.2,0-0.4,0c-0.1,0-0.3,0-0.4-0.1c-0.1,0-0.2-0.1-0.3-0.2
				c-0.1-0.1-0.2-0.2-0.2-0.3c-0.1-0.1-0.1-0.3-0.1-0.4c0-0.1,0-0.3,0.1-0.4c0.1-0.1,0.2-0.3,0.4-0.4c0.2-0.1,0.4-0.2,0.7-0.3
				c0.3-0.1,0.6-0.1,1-0.1v-0.3c0-0.3-0.1-0.5-0.2-0.6c-0.1-0.1-0.3-0.2-0.5-0.2c-0.2,0-0.3,0-0.4,0.1s-0.2,0.1-0.3,0.1
				c-0.1,0-0.1,0.1-0.2,0.1c-0.1,0-0.1,0.1-0.2,0.1c0,0-0.1,0-0.1,0s-0.1-0.1-0.1-0.1L153.8,215.6z M155.9,217c-0.3,0-0.5,0-0.8,0.1
				c-0.2,0-0.4,0.1-0.5,0.1c-0.1,0.1-0.2,0.1-0.3,0.2c-0.1,0.1-0.1,0.2-0.1,0.3c0,0.1,0,0.2,0,0.2c0,0.1,0.1,0.1,0.1,0.2
				s0.1,0.1,0.2,0.1s0.2,0,0.2,0c0.1,0,0.2,0,0.3,0s0.2-0.1,0.3-0.1c0.1,0,0.2-0.1,0.2-0.2c0.1-0.1,0.1-0.1,0.2-0.2V217z"/>
			<path id="XMLID_40_" fill="#FFFFFF" d="M160.5,215l-2,4.7c0,0,0,0.1-0.1,0.1c0,0-0.1,0-0.1,0h-0.5l0.7-1.4L157,215h0.6
				c0.1,0,0.1,0,0.1,0s0.1,0.1,0.1,0.1l1,2.3c0,0.1,0.1,0.2,0.1,0.3c0-0.1,0.1-0.2,0.1-0.3l0.9-2.3c0,0,0-0.1,0.1-0.1
				c0,0,0.1,0,0.1,0H160.5z"/>
			<path id="XMLID_42_" fill="#FFFFFF" d="M167.3,218.7h-0.6c-0.1,0-0.1,0-0.2,0c0,0-0.1-0.1-0.1-0.1l-0.5-0.5
				c-0.2,0.2-0.5,0.4-0.8,0.5c-0.3,0.1-0.6,0.2-1,0.2c-0.2,0-0.4,0-0.6-0.1s-0.3-0.2-0.5-0.3s-0.3-0.3-0.4-0.5
				c-0.1-0.2-0.1-0.4-0.1-0.6c0-0.2,0-0.3,0.1-0.5c0.1-0.1,0.1-0.3,0.2-0.4c0.1-0.1,0.2-0.2,0.4-0.3c0.1-0.1,0.3-0.2,0.4-0.3
				c-0.1-0.2-0.3-0.4-0.3-0.5c-0.1-0.2-0.1-0.4-0.1-0.5c0-0.2,0-0.3,0.1-0.5c0.1-0.2,0.2-0.3,0.3-0.4c0.1-0.1,0.3-0.2,0.4-0.3
				c0.2-0.1,0.4-0.1,0.6-0.1c0.2,0,0.4,0,0.5,0.1c0.2,0.1,0.3,0.1,0.4,0.2c0.1,0.1,0.2,0.2,0.3,0.3s0.1,0.3,0.1,0.4l-0.4,0.1
				c-0.1,0-0.1,0-0.2-0.1c0-0.1,0-0.1-0.1-0.2s-0.1-0.1-0.1-0.2s-0.1-0.1-0.2-0.1c-0.1,0-0.2-0.1-0.3-0.1c-0.1,0-0.2,0-0.3,0.1
				s-0.2,0.1-0.2,0.2c-0.1,0.1-0.1,0.1-0.2,0.2c0,0.1-0.1,0.2-0.1,0.3c0,0.1,0,0.2,0,0.2c0,0.1,0,0.2,0.1,0.2c0,0.1,0.1,0.2,0.2,0.2
				c0.1,0.1,0.1,0.2,0.2,0.3l1.5,1.5c0.1-0.2,0.2-0.3,0.2-0.5s0.1-0.4,0.1-0.5c0,0,0-0.1,0-0.1c0,0,0.1,0,0.1,0h0.4
				c0,0.3,0,0.5-0.1,0.8c-0.1,0.3-0.2,0.5-0.4,0.7L167.3,218.7z M164,216.1c-0.3,0.1-0.4,0.3-0.6,0.5c-0.1,0.2-0.2,0.4-0.2,0.6
				c0,0.2,0,0.3,0.1,0.4c0.1,0.1,0.1,0.2,0.2,0.3c0.1,0.1,0.2,0.1,0.3,0.2c0.1,0,0.2,0.1,0.4,0.1c0.3,0,0.5,0,0.7-0.1
				c0.2-0.1,0.4-0.2,0.6-0.4L164,216.1z"/>
			<path id="XMLID_45_" fill="#FFFFFF" d="M171.4,216.9c0,0.3,0,0.5-0.1,0.8c-0.1,0.2-0.2,0.4-0.3,0.6c-0.1,0.2-0.3,0.3-0.5,0.4
				c-0.2,0.1-0.4,0.1-0.7,0.1c-0.2,0-0.5,0-0.7-0.1c0-0.1,0-0.1,0-0.2c0-0.1,0-0.1,0-0.2c0,0,0-0.1,0-0.1c0,0,0.1,0,0.1,0
				c0,0,0.1,0,0.2,0s0.2,0,0.3,0c0.2,0,0.3,0,0.4-0.1s0.2-0.1,0.3-0.2c0.1-0.1,0.1-0.2,0.2-0.4c0-0.2,0.1-0.3,0.1-0.6v-3.4h0.7
				V216.9z"/>
			<path id="XMLID_47_" fill="#FFFFFF" d="M175.4,215v3.6H175c-0.1,0-0.1,0-0.2-0.1l-0.1-0.4c-0.2,0.2-0.3,0.3-0.5,0.4
				c-0.2,0.1-0.4,0.2-0.7,0.2c-0.2,0-0.4,0-0.5-0.1s-0.3-0.2-0.4-0.3c-0.1-0.1-0.2-0.3-0.2-0.4c-0.1-0.2-0.1-0.4-0.1-0.6V215h0.6
				v2.3c0,0.3,0.1,0.5,0.2,0.6c0.1,0.2,0.3,0.2,0.6,0.2c0.2,0,0.4,0,0.5-0.1c0.2-0.1,0.3-0.2,0.5-0.4V215H175.4z"/>
			<path id="XMLID_49_" fill="#FFFFFF" d="M177,215.6c0.1-0.1,0.2-0.2,0.3-0.2c0.1-0.1,0.2-0.1,0.3-0.2c0.1-0.1,0.2-0.1,0.3-0.1
				c0.1,0,0.2,0,0.4,0c0.2,0,0.4,0,0.5,0.1s0.3,0.2,0.4,0.3c0.1,0.1,0.2,0.3,0.2,0.4c0.1,0.2,0.1,0.4,0.1,0.6v2.3h-0.6v-2.3
				c0-0.3-0.1-0.5-0.2-0.6c-0.1-0.2-0.3-0.2-0.6-0.2c-0.2,0-0.4,0-0.5,0.1c-0.2,0.1-0.3,0.2-0.5,0.4v2.7h-0.6V215h0.4
				c0.1,0,0.1,0,0.2,0.1L177,215.6z"/>
			<path id="XMLID_51_" fill="#FFFFFF" d="M185.4,218.2v0.5h-2.8v-0.5h1.1v-3.5c0-0.1,0-0.2,0-0.3l-0.9,0.8c0,0-0.1,0-0.1,0
				c0,0-0.1,0-0.1,0c0,0-0.1,0-0.1,0c0,0,0,0-0.1,0l-0.2-0.3l1.5-1.3h0.5v4.7H185.4z"/>
			<path id="XMLID_53_" fill="#FFFFFF" d="M188.4,216.6c0.1-0.1,0.1-0.1,0.1-0.2c0-0.1,0.1-0.1,0.1-0.2c-0.1,0.1-0.3,0.2-0.4,0.2
				c-0.2,0.1-0.3,0.1-0.5,0.1c-0.2,0-0.4,0-0.6-0.1c-0.2-0.1-0.3-0.2-0.5-0.3c-0.1-0.1-0.2-0.3-0.3-0.5c-0.1-0.2-0.1-0.4-0.1-0.6
				c0-0.2,0-0.4,0.1-0.6c0.1-0.2,0.2-0.4,0.4-0.5c0.2-0.1,0.3-0.3,0.5-0.3s0.4-0.1,0.7-0.1c0.2,0,0.5,0,0.7,0.1
				c0.2,0.1,0.4,0.2,0.5,0.3c0.1,0.1,0.3,0.3,0.3,0.5c0.1,0.2,0.1,0.4,0.1,0.7c0,0.1,0,0.3,0,0.4c0,0.1-0.1,0.3-0.1,0.4
				c-0.1,0.1-0.1,0.3-0.2,0.4c-0.1,0.1-0.2,0.3-0.3,0.4l-1.3,1.8c0,0-0.1,0.1-0.1,0.1c-0.1,0-0.1,0-0.2,0h-0.6L188.4,216.6z
				 M186.9,215.1c0,0.2,0,0.3,0.1,0.4c0,0.1,0.1,0.2,0.2,0.3c0.1,0.1,0.2,0.2,0.3,0.2c0.1,0,0.3,0.1,0.4,0.1c0.2,0,0.3,0,0.5-0.1
				c0.1-0.1,0.2-0.1,0.3-0.2c0.1-0.1,0.2-0.2,0.2-0.3s0.1-0.2,0.1-0.4c0-0.2,0-0.3-0.1-0.4c-0.1-0.1-0.1-0.2-0.2-0.3
				s-0.2-0.2-0.3-0.2c-0.1,0-0.3-0.1-0.4-0.1c-0.2,0-0.3,0-0.4,0.1s-0.2,0.1-0.3,0.2c-0.1,0.1-0.2,0.2-0.2,0.3
				C186.9,214.8,186.9,214.9,186.9,215.1z"/>
		</g>
	</g>
	<g id="XMLID_160_">
		<g id="XMLID_217_">
			<ellipse id="XMLID_294_" fill="#E7E7E7" cx="162" cy="146.4" rx="21.5" ry="2.4"/>
		</g>
		<g id="XMLID_216_">
			<path id="XMLID_292_" fill="#27AAE1" d="M184.6,93.1C184.4,80,174.2,78.9,162,78.9c-12.2,0-22.3,1.1-22.6,14.2
				c-0.2,11.2,5.2,37.9,10.8,43.6c0.8,0.9,1.7,1.3,2.6,1.3c0,0,0.2,0,0.2,0c5.5-0.4,5.2-5.3,4.8-11.1c-0.1-1.8-0.2-3.6-0.2-5.5
				c0-5.7,2.5-6.5,3.9-6.5c0.2,0,0.3,0,0.4,0c0.1,0,0.2,0,0.3,0c0,0,0,0,0,0c0.1,0,0.2,0,0.4,0c1.5,0,3.9,0.8,3.9,6.5
				c0,1.9-0.1,3.8-0.2,5.5c-0.4,5.7-0.7,10.7,4.8,11.1c0,0,0.2,0,0.2,0c0.9,0,1.7-0.4,2.6-1.3C179.4,131.1,184.8,104.3,184.6,93.1z"
				/>
		</g>
		<g id="XMLID_215_">
			<path id="XMLID_290_" fill="#27AAE1" d="M172.6,135.5c-0.3,0.4-0.9,0.8-1.3,0.8v0.8l-0.1-0.9c-3.6-0.3-3.6-3.2-3.2-9.3
				c0.1-1.7,0.2-3.7,0.2-5.7c0-7.6-4.3-8.2-5.6-8.2c-0.3,0-0.5,0-0.6,0c-0.1,0-0.3,0-0.6,0c-1.3,0-5.6,0.6-5.6,8.2
				c0,2,0.1,3.9,0.2,5.7c0.4,6.1,0.4,9-3.3,9.3c-0.5,0-1-0.4-1.3-0.8c-5.1-5.2-10.5-31.5-10.3-42.3c0.2-11.6,8.8-12.5,20.9-12.5
				c12.1,0,20.7,0.9,20.9,12.5C183.1,104,177.7,130.3,172.6,135.5z"/>
		</g>
		<g id="XMLID_213_">
			<path id="XMLID_288_" fill="#27AAE1" d="M157,80.6c-1.5,0-6.4-0.3-8.5-3.9c-1.1-1.9-1-3.4-1-4.7c0.1-1.6,0.1-2.7-1.9-4.3
				l-0.9-0.8l1-0.7c0.1,0,1.3-0.9,2.9-0.9c1.1,0,2.6,0.4,3.7,2.2c1.1,1.8,2.2,2.2,5.5,2.3l11.2,0c3,0,5.5,2.4,5.5,5.3
				c0,2.8-2.9,5.4-6,5.4h-11.2C157.3,80.6,157.2,80.6,157,80.6z"/>
		</g>
		<g id="XMLID_197_">
			<path id="XMLID_286_" fill="#27AAE1" d="M147.8,67.2c1.6,1.8,1.5,3.4,1.5,4.8c-0.1,1.2-0.1,2.3,0.7,3.7c1.7,2.8,6.1,3,7,3
				c0.2,0,0.3,0,0.3,0l11.3,0c2.2,0,4.2-1.7,4.2-3.6c0-2-1.7-3.6-3.7-3.6h-11.2c-3.5,0-5.5-0.5-7.1-3.1c-0.6-0.9-1.3-1.4-2.2-1.4
				C148.3,67.1,148.1,67.2,147.8,67.2z"/>
		</g>
		<g id="XMLID_180_">
			<g id="XMLID_182_">
				<path id="XMLID_284_" fill="#27AAE1" d="M158.7,77.1h-1.2c-0.5,0-0.9-0.4-0.9-0.9c0-0.5,0.4-0.9,0.9-0.9h1.2
					c0.5,0,0.9,0.4,0.9,0.9C159.6,76.7,159.2,77.1,158.7,77.1z"/>
			</g>
		</g>
		<g id="XMLID_169_">
			<polygon id="XMLID_10_" fill="#27AAE1" points="187.7,128.2 189.6,132.5 193.9,134.4 189.6,136.3 187.7,140.6 185.8,136.3 
				181.5,134.4 185.8,132.5 			"/>
		</g>
		<g id="XMLID_164_">
			<polygon id="XMLID_1_" fill="#27AAE1" points="135,72.7 136.9,77 141.2,78.9 136.9,80.8 135,85.1 133.2,80.8 128.8,78.9 
				133.2,77 			"/>
		</g>
	</g>
</g>
</svg>
