<?xml version="1.0" encoding="utf-8"?>
<!-- Generator: Adobe Illustrator 19.0.0, SVG Export Plug-In . SVG Version: 6.00 Build 0)  -->
<svg version="1.1" id="Layer_1" xmlns="http://www.w3.org/2000/svg" xmlns:xlink="http://www.w3.org/1999/xlink" x="0px" y="0px"
	 viewBox="0 0 400 300" style="enable-background:new 0 0 400 300;" xml:space="preserve">
<style type="text/css">
	.st0{fill:#FFFFFF;}
	.st1{fill:#27AAE1;}
	.st2{opacity:0.4;clip-path:url(#SVGID_2_);}
	.st3{opacity:0.37;}
	.st4{fill:#6D6E71;}
	.st5{fill:#EE5253;}
	.st6{font-family:'Biko';}
	.st7{font-size:40.4942px;}
	.st8{font-size:26.806px;}
	.st9{font-size:9.7038px;}
	.st10{font-family:'Lato-Bold';}
	.st11{font-size:6.3711px;}
	.st12{font-size:4.416px;}
	.st13{fill:#E7E7E7;}
</style>
<g id="XMLID_56_">
	
		<image style="overflow:visible;opacity:0.75;" width="1814" height="1383" id="XMLID_24_" xlink:href="6943D751.png"  transform="matrix(0.24 0 0 0.24 -11.1548 -14.9876)">
	</image>
	<g id="XMLID_20_">
		<g id="XMLID_23_">
			<path id="XMLID_4_" class="st0" d="M377.6,287.8H25.4c-8,0-14.5-6.5-14.5-14.5V24.5c0-8,6.5-14.5,14.5-14.5h352.3
				c8,0,14.5,6.5,14.5,14.5v248.8C392.2,281.3,385.7,287.8,377.6,287.8z"/>
		</g>
	</g>
</g>
<g id="XMLID_53_">
	<path id="XMLID_282_" class="st1" d="M281.5,228.7h-160c-8.3,0-15-6.7-15-15l0,0c0-8.3,6.7-15,15-15h160c8.3,0,15,6.7,15,15l0,0
		C296.5,222,289.8,228.7,281.5,228.7z"/>
</g>
<g id="XMLID_45_">
	<path id="XMLID_238_" class="st0" d="M184.6,215v2.9c-0.4,0.3-0.8,0.5-1.2,0.6c-0.4,0.1-0.9,0.2-1.3,0.2c-0.6,0-1.1-0.1-1.6-0.3
		c-0.5-0.2-0.9-0.4-1.2-0.8c-0.3-0.3-0.6-0.7-0.8-1.2c-0.2-0.5-0.3-0.9-0.3-1.5c0-0.5,0.1-1,0.3-1.5c0.2-0.5,0.4-0.8,0.8-1.2
		c0.3-0.3,0.7-0.6,1.2-0.8c0.5-0.2,1-0.3,1.6-0.3c0.3,0,0.6,0,0.8,0.1s0.5,0.1,0.7,0.2c0.2,0.1,0.4,0.2,0.6,0.3
		c0.2,0.1,0.3,0.2,0.5,0.4l-0.4,0.6c-0.1,0.1-0.1,0.2-0.2,0.2c-0.1,0-0.2,0-0.3-0.1c-0.1-0.1-0.2-0.1-0.3-0.2
		c-0.1-0.1-0.2-0.1-0.4-0.2c-0.1,0-0.3-0.1-0.5-0.1c-0.2,0-0.4,0-0.6,0c-0.4,0-0.7,0.1-1,0.2s-0.5,0.3-0.7,0.5
		c-0.2,0.2-0.4,0.5-0.5,0.8c-0.1,0.3-0.2,0.7-0.2,1c0,0.4,0.1,0.8,0.2,1.1c0.1,0.3,0.3,0.6,0.5,0.8c0.2,0.2,0.5,0.4,0.8,0.5
		c0.3,0.1,0.6,0.2,1,0.2c0.3,0,0.5,0,0.7-0.1s0.4-0.1,0.6-0.2v-1.3h-0.9c-0.1,0-0.2,0-0.2-0.1c0,0-0.1-0.1-0.1-0.2V215H184.6z"/>
	<path id="XMLID_240_" class="st0" d="M187.2,212.5v2h2.5v1h-2.5v2h3.2v1.1h-4.6v-7.2h4.6v1.1H187.2z"/>
	<path id="XMLID_242_" class="st0" d="M196.7,212.5h-2.2v6.1h-1.3v-6.1H191v-1.1h5.7V212.5z"/>
	<path id="XMLID_244_" class="st0" d="M205.9,211.4v7.2h-0.7c-0.1,0-0.2,0-0.3-0.1c-0.1,0-0.1-0.1-0.2-0.2l-3.8-4.8
		c0,0.2,0,0.4,0,0.6v4.4h-1.2v-7.2h0.7c0.1,0,0.1,0,0.1,0c0,0,0.1,0,0.1,0c0,0,0.1,0,0.1,0.1s0.1,0.1,0.1,0.1l3.8,4.8
		c0-0.1,0-0.2,0-0.3c0-0.1,0-0.2,0-0.3v-4.4H205.9z"/>
	<path id="XMLID_246_" class="st0" d="M214.4,215.1c0,0.5-0.1,1-0.3,1.5c-0.2,0.5-0.4,0.8-0.7,1.2s-0.7,0.6-1.2,0.8
		c-0.5,0.2-1,0.3-1.5,0.3c-0.5,0-1-0.1-1.5-0.3c-0.4-0.2-0.8-0.4-1.2-0.8s-0.6-0.7-0.7-1.2c-0.2-0.5-0.3-0.9-0.3-1.5
		c0-0.5,0.1-1,0.3-1.5c0.2-0.5,0.4-0.8,0.7-1.2s0.7-0.6,1.2-0.8c0.5-0.2,0.9-0.3,1.5-0.3c0.4,0,0.7,0,1,0.1s0.6,0.2,0.9,0.4
		c0.3,0.2,0.5,0.3,0.7,0.6c0.2,0.2,0.4,0.5,0.5,0.7s0.3,0.6,0.3,0.9C214.3,214.4,214.4,214.7,214.4,215.1z M213,215.1
		c0-0.4-0.1-0.8-0.2-1.1c-0.1-0.3-0.3-0.6-0.5-0.8c-0.2-0.2-0.4-0.4-0.7-0.5c-0.3-0.1-0.6-0.2-1-0.2s-0.7,0.1-1,0.2
		c-0.3,0.1-0.5,0.3-0.7,0.5c-0.2,0.2-0.4,0.5-0.5,0.8c-0.1,0.3-0.2,0.7-0.2,1.1s0.1,0.8,0.2,1.1c0.1,0.3,0.3,0.6,0.5,0.8
		c0.2,0.2,0.4,0.4,0.7,0.5c0.3,0.1,0.6,0.2,1,0.2s0.7-0.1,1-0.2c0.3-0.1,0.5-0.3,0.7-0.5c0.2-0.2,0.3-0.5,0.5-0.8
		C212.9,215.8,213,215.5,213,215.1z"/>
	<path id="XMLID_249_" class="st0" d="M225,211.4l-2.2,7.2h-1.2l-1.6-4.9c0-0.1-0.1-0.3-0.1-0.4c0,0.1,0,0.2-0.1,0.2
		c0,0.1,0,0.1-0.1,0.2l-1.6,4.9h-1.2l-2.2-7.2h1.1c0.1,0,0.2,0,0.3,0.1s0.1,0.1,0.2,0.2l1.2,4.3c0,0.1,0.1,0.2,0.1,0.3
		s0.1,0.3,0.1,0.4c0-0.1,0.1-0.3,0.1-0.4c0-0.1,0.1-0.2,0.1-0.3l1.4-4.3c0-0.1,0.1-0.1,0.2-0.2s0.2-0.1,0.3-0.1h0.4
		c0.1,0,0.2,0,0.3,0.1s0.1,0.1,0.2,0.2l1.4,4.3c0.1,0.2,0.1,0.4,0.2,0.7c0-0.3,0.1-0.5,0.1-0.7l1.2-4.3c0-0.1,0.1-0.2,0.2-0.2
		c0.1-0.1,0.2-0.1,0.3-0.1H225z"/>
</g>
<g id="XMLID_16_">
	<defs>
		<path id="SVGID_1_" d="M377.6,287.8H25.4c-8,0-14.5-6.5-14.5-14.5V24.5c0-8,6.5-14.5,14.5-14.5h352.3c8,0,14.5,6.5,14.5,14.5
			v248.8C392.2,281.3,385.7,287.8,377.6,287.8z"/>
	</defs>
	<clipPath id="SVGID_2_">
		<use xlink:href="#SVGID_1_"  style="overflow:visible;"/>
	</clipPath>
	<g id="XMLID_28_" class="st2">
		<g id="XMLID_32_" class="st3">
			<g id="XMLID_19_">
				<path id="XMLID_34_" class="st1" d="M-8.5,142.6c71.6,4.7,48.1,83.5,121.7,128.3S47.2,386.7-24.4,382
					c-71.6-4.7-147.8-63.4-121.7-128.3S-80.1,137.8-8.5,142.6z"/>
			</g>
		</g>
		<g id="XMLID_29_" class="st3">
			<g id="XMLID_8_">
				<path id="XMLID_33_" class="st1" d="M17.5,158.8c71.6,4.7,48.1,83.5,121.7,128.3S73.2,403,1.6,398.2s-147.8-63.4-121.7-128.3
					S-54.1,154.1,17.5,158.8z"/>
			</g>
		</g>
	</g>
	<g id="XMLID_21_" class="st2">
		<g id="XMLID_25_" class="st3">
			<g id="XMLID_7_">
				<path id="XMLID_31_" class="st1" d="M409.4,190.3c-68.5-21.4-27.2-92.4-88.3-153.2s91.2-97.2,159.7-75.9s128.9,96.2,88.3,153.2
					C528.6,171.5,477.9,211.7,409.4,190.3z"/>
			</g>
		</g>
		<g id="XMLID_22_" class="st3">
			<g id="XMLID_5_">
				<path id="XMLID_30_" class="st1" d="M387.9,168.5c-68.5-21.4-27.2-92.4-88.3-153.2s91.2-97.2,159.7-75.9s128.9,96.2,88.3,153.2
					C507.1,149.6,456.4,189.8,387.9,168.5z"/>
			</g>
		</g>
	</g>
</g>
<g id="XMLID_96_">
	<g id="XMLID_91_">
		<path id="XMLID_92_" class="st4" d="M232.4,178.2h-59.1c-1.9,0-3.5-1.6-3.5-3.5v-1.6c0-1.9,1.6-3.5,3.5-3.5h59.1
			c1.9,0,3.5,1.6,3.5,3.5v1.6C235.9,176.6,234.3,178.2,232.4,178.2z"/>
	</g>
	<g id="XMLID_93_">
		<text id="XMLID_48_" transform="matrix(1 0 0 1 102.5663 159.1797)"><tspan x="0" y="0" class="st5 st6 st7">20%</tspan><tspan x="71.6" y="0" class="st5 st6 st8"> </tspan><tspan x="77.8" y="0" class="st1 st6 st8">DISCOUNT</tspan></text>
		<text id="XMLID_94_" transform="matrix(1 0 0 1 179.5439 136.5552)" class="st4 st6 st9">Special Offer</text>
	</g>
	<text id="XMLID_47_" transform="matrix(1 0 0 1 121.5097 189.6543)"><tspan x="0" y="0" class="st4 st10 st11">Teeth Whintening for</tspan><tspan x="61.4" y="0" class="st1 st10 st11"> Brighter &amp; Whiter Smile while in Bali</tspan></text>
	<text id="XMLID_46_" transform="matrix(1 0 0 1 179.1444 175.79)" class="st0 st10 st12">Special on December 19</text>
	<g id="XMLID_95_">
		<g id="XMLID_49_">
			<g id="XMLID_67_">
				<ellipse id="XMLID_68_" class="st13" cx="210.8" cy="121.3" rx="16.1" ry="1.8"/>
			</g>
			<g id="XMLID_65_">
				<path id="XMLID_66_" class="st1" d="M227.7,81.4c-0.2-9.8-7.8-10.6-16.9-10.6c-9.1,0-16.7,0.8-16.9,10.6
					c-0.2,8.4,3.9,28.4,8.1,32.6c0.6,0.6,1.3,1,1.9,1c0,0,0.1,0,0.1,0c4.1-0.3,3.9-4,3.6-8.3c-0.1-1.3-0.2-2.7-0.2-4.1
					c0-4.3,1.9-4.9,3-4.9c0.1,0,0.2,0,0.3,0c0.1,0,0.2,0,0.2,0c0,0,0,0,0,0c0,0,0.1,0,0.3,0c1.1,0,3,0.6,3,4.9
					c0,1.5-0.1,2.8-0.2,4.1c-0.3,4.3-0.5,8,3.6,8.3c0,0,0.1,0,0.1,0c0.6,0,1.3-0.3,1.9-1C223.7,109.9,227.8,89.8,227.7,81.4z"/>
			</g>
			<g id="XMLID_63_">
				<path id="XMLID_64_" class="st1" d="M218.7,113.2c-0.3,0.3-0.6,0.6-1,0.6v0.6l0-0.6c-2.7-0.2-2.7-2.4-2.4-6.9
					c0.1-1.3,0.2-2.7,0.2-4.2c0-5.7-3.2-6.2-4.2-6.2c-0.2,0-0.3,0-0.4,0c-0.1,0-0.2,0-0.4,0c-1,0-4.2,0.4-4.2,6.2
					c0,1.5,0.1,3,0.2,4.2c0.3,4.5,0.3,6.7-2.4,6.9c-0.4,0-0.7-0.3-1-0.6c-3.8-3.9-7.9-23.6-7.7-31.7c0.2-8.7,6.6-9.4,15.6-9.4
					c9.1,0,15.5,0.7,15.6,9.4C226.6,89.6,222.5,109.3,218.7,113.2z"/>
			</g>
			<g id="XMLID_61_">
				<path id="XMLID_62_" class="st1" d="M207,72c-1.1,0-4.8-0.2-6.4-2.9c-0.8-1.4-0.8-2.6-0.7-3.5c0.1-1.2,0.1-2-1.4-3.3l-0.7-0.6
					l0.8-0.5c0,0,1-0.6,2.2-0.6c0.8,0,1.9,0.3,2.8,1.7c0.8,1.3,1.6,1.7,4.1,1.7l8.4,0c2.3,0,4.1,1.8,4.1,4c0,2.1-2.1,4-4.5,4h-8.4
					C207.2,72,207.1,72,207,72z"/>
			</g>
			<g id="XMLID_59_">
				<path id="XMLID_60_" class="st1" d="M200.1,62c1.2,1.3,1.2,2.5,1.1,3.6c0,0.9-0.1,1.7,0.5,2.8c1.2,2.1,4.6,2.2,5.2,2.2
					c0.1,0,0.2,0,0.2,0l8.4,0c1.6,0,3.1-1.3,3.1-2.7c0-1.5-1.2-2.7-2.8-2.7h-8.4c-2.6,0-4.1-0.4-5.3-2.3c-0.4-0.7-0.9-1-1.6-1
					C200.5,62,200.3,62,200.1,62z"/>
			</g>
			<g id="XMLID_55_">
				<g id="XMLID_57_">
					<path id="XMLID_58_" class="st1" d="M208.3,69.5h-0.9c-0.4,0-0.7-0.3-0.7-0.7c0-0.4,0.3-0.7,0.7-0.7h0.9c0.4,0,0.7,0.3,0.7,0.7
						C208.9,69.2,208.6,69.5,208.3,69.5z"/>
				</g>
			</g>
			<g id="XMLID_52_">
				<polygon id="XMLID_54_" class="st1" points="230,107.7 231.4,110.9 234.6,112.3 231.4,113.8 230,117 228.6,113.8 225.3,112.3 
					228.6,110.9 				"/>
			</g>
			<g id="XMLID_50_">
				<polygon id="XMLID_51_" class="st1" points="190.5,66.1 192,69.3 195.2,70.8 192,72.2 190.5,75.4 189.1,72.2 185.9,70.8 
					189.1,69.3 				"/>
			</g>
		</g>
		<g id="XMLID_73_" class="st3">
			<g id="XMLID_74_">
				<path id="XMLID_75_" class="st1" d="M223.5,107.4c-11.1,8.6-17.8-6-34.4-3c-16.6,3-5.3-25.5,5.8-34.1s16.9,4.5,33.8,10
					C245.5,85.9,234.6,98.9,223.5,107.4z"/>
			</g>
		</g>
	</g>
</g>
</svg>
