<?xml version="1.0" encoding="utf-8"?>
<!-- Generator: Adobe Illustrator 19.0.0, SVG Export Plug-In . SVG Version: 6.00 Build 0)  -->
<svg version="1.1" id="Layer_1" xmlns="http://www.w3.org/2000/svg" xmlns:xlink="http://www.w3.org/1999/xlink" x="0px" y="0px"
	 viewBox="-147 220.9 300 400" style="enable-background:new -147 220.9 300 400;" xml:space="preserve">
<style type="text/css">
	.st0{fill:#FFFFFF;}
	.st1{opacity:0.4;clip-path:url(#SVGID_2_);}
	.st2{opacity:0.37;}
	.st3{fill:#27AAE1;}
	.st4{opacity:0.4;clip-path:url(#SVGID_4_);}
	.st5{fill:#6E6F72;}
	.st6{fill:#EE5252;}
	.st7{font-family:'Biko';}
	.st8{font-size:40.4942px;}
	.st9{font-size:26.806px;}
	.st10{fill:#26A9E0;}
	.st11{font-size:9.7038px;}
	.st12{font-family:'Lato-Bold';}
	.st13{font-size:9.2016px;}
	.st14{font-size:4.416px;}
	.st15{fill:#E6E6E6;}
</style>
<g id="XMLID_7_">
	<g id="XMLID_8_">
		<path id="XMLID_557_" class="st0" d="M143.4,243.7V596c0,8-6.5,14.5-14.5,14.5h-248.8c-8,0-14.5-6.5-14.5-14.5V243.7
			c0-8,6.5-14.5,14.5-14.5h248.8C136.9,229.2,143.4,235.7,143.4,243.7z"/>
	</g>
</g>
<g id="XMLID_218_">
	<g>
		<defs>
			<path id="SVGID_1_" d="M143.4,243.7V596c0,8-6.5,14.5-14.5,14.5h-248.8c-8,0-14.5-6.5-14.5-14.5V243.7c0-8,6.5-14.5,14.5-14.5
				h248.8C136.9,229.2,143.4,235.7,143.4,243.7z"/>
		</defs>
		<clipPath id="SVGID_2_">
			<use xlink:href="#SVGID_1_"  style="overflow:visible;"/>
		</clipPath>
		<g id="XMLID_230_" class="st1">
			<g id="XMLID_236_" class="st2">
				<g id="XMLID_6_">
					<path id="XMLID_279_" class="st3" d="M-1.8,629.8c4.7-71.6,83.5-48.1,128.3-121.7s115.9,66,111.1,137.6
						c-4.7,71.6-63.4,147.8-128.3,121.7S-6.6,701.4-1.8,629.8z"/>
				</g>
			</g>
			<g id="XMLID_231_" class="st2">
				<g id="XMLID_5_">
					<path id="XMLID_278_" class="st3" d="M14.4,603.8c4.7-71.6,83.5-48.1,128.3-121.7s115.9,66,111.1,137.6
						c-4.7,71.6-63.4,147.8-128.3,121.7S9.7,675.4,14.4,603.8z"/>
				</g>
			</g>
		</g>
	</g>
	<g>
		<defs>
			<path id="SVGID_3_" d="M143.4,243.7V596c0,8-6.5,14.5-14.5,14.5h-248.8c-8,0-14.5-6.5-14.5-14.5V243.7c0-8,6.5-14.5,14.5-14.5
				h248.8C136.9,229.2,143.4,235.7,143.4,243.7z"/>
		</defs>
		<clipPath id="SVGID_4_">
			<use xlink:href="#SVGID_3_"  style="overflow:visible;"/>
		</clipPath>
		<g id="XMLID_223_" class="st4">
			<g id="XMLID_227_" class="st2">
				<g id="XMLID_4_">
					<path id="XMLID_277_" class="st3" d="M45.9,211.9c-21.4,68.5-92.4,27.2-153.2,88.3s-97.2-91.2-75.8-159.7S-86.9,11.6-29.9,52.2
						S67.3,143.4,45.9,211.9z"/>
				</g>
			</g>
			<g id="XMLID_224_" class="st2">
				<g id="XMLID_3_">
					<path id="XMLID_276_" class="st3" d="M24.1,233.4c-21.4,68.5-92.4,27.2-153.2,88.3S-226.3,230.5-205,162s96.2-128.9,153.2-88.3
						S45.4,164.9,24.1,233.4z"/>
				</g>
			</g>
		</g>
	</g>
</g>
<g id="XMLID_271_">
	<path id="XMLID_273_" class="st3" d="M84.5,499.6h-160c-8.3,0-15-6.7-15-15l0,0c0-8.3,6.7-15,15-15h160c8.3,0,15,6.7,15,15l0,0
		C99.5,492.9,92.8,499.6,84.5,499.6z"/>
</g>
<g id="XMLID_265_">
	<path id="XMLID_212_" class="st0" d="M50.4,421.8v-3.9l-0.5-0.1c-0.1,0-0.1,0-0.2-0.1l-0.1-0.1v-0.3h0.7v-0.4c0-0.3,0-0.5,0.1-0.7
		c0.1-0.2,0.2-0.4,0.3-0.5s0.3-0.2,0.5-0.3s0.4-0.1,0.6-0.1c0.2,0,0.4,0,0.6,0.1v0.4c0,0.1,0,0.1-0.1,0.1s-0.2,0-0.3,0
		s-0.3,0-0.4,0.1c-0.1,0-0.2,0.1-0.3,0.2c-0.1,0.1-0.1,0.2-0.2,0.3c0,0.1-0.1,0.3-0.1,0.5v0.4h1.3v0.6H51v3.9h-0.6V421.8z"/>
	<path id="XMLID_221_" class="st0" d="M55.1,417.1c0.3,0,0.6,0.1,0.9,0.2c0.3,0.1,0.5,0.3,0.7,0.5c0.2,0.2,0.3,0.5,0.4,0.7
		c0.1,0.2,0.2,0.6,0.2,1s0,0.7-0.2,1c-0.1,0.3-0.2,0.5-0.4,0.7c-0.2,0.2-0.4,0.4-0.7,0.5s-0.6,0.2-0.9,0.2c-0.3,0-0.6-0.1-0.9-0.2
		c-0.3-0.1-0.5-0.3-0.7-0.5c-0.2-0.2-0.3-0.5-0.4-0.7c-0.1-0.3-0.2-0.6-0.2-1s0-0.7,0.2-1c0.2-0.3,0.2-0.5,0.4-0.7
		c0.2-0.2,0.4-0.4,0.7-0.5C54.4,417.2,54.7,417.1,55.1,417.1z M55.1,421.2c0.5,0,0.8-0.2,1-0.5c0.2-0.3,0.3-0.7,0.3-1.3
		c0-0.5-0.1-1-0.3-1.3c-0.2-0.3-0.6-0.5-1-0.5c-0.2,0-0.4,0-0.6,0.1s-0.3,0.2-0.4,0.3c-0.1,0.1-0.2,0.3-0.3,0.5
		c-0.1,0.2-0.1,0.5-0.1,0.7c0,0.5,0.1,1,0.3,1.3C54.3,421.1,54.6,421.2,55.1,421.2z"/>
	<path id="XMLID_226_" class="st0" d="M59,418.1c0.1-0.3,0.3-0.6,0.5-0.7c0.2-0.2,0.5-0.3,0.8-0.3c0.1,0,0.2,0,0.3,0
		s0.2,0.1,0.2,0.1l-0.1,0.6c0,0.1-0.1,0.1-0.1,0.1s-0.1,0-0.2,0c-0.1,0-0.2,0-0.3,0s-0.3,0-0.4,0.1c-0.1,0-0.2,0.1-0.3,0.2
		c-0.1,0.1-0.2,0.2-0.2,0.3c-0.1,0.1-0.1,0.3-0.2,0.4v2.9h-0.8v-4.6h0.5c0.1,0,0.1,0,0.2,0s0.1,0.1,0.1,0.2V418.1z"/>
	<path id="XMLID_229_" class="st0" d="M67.5,421c0.1,0,0.2,0,0.2,0.1s0.1,0.1,0.1,0.2v0.5h-4.3v-0.3c0-0.1,0-0.1,0-0.2
		s0.1-0.1,0.1-0.2l2.1-2.1c0.2-0.2,0.3-0.3,0.5-0.5c0.1-0.2,0.3-0.3,0.4-0.5c0.1-0.2,0.2-0.3,0.2-0.5c0.1-0.2,0.1-0.3,0.1-0.5
		c0-0.2,0-0.4-0.1-0.5s-0.1-0.3-0.2-0.4c-0.1-0.1-0.2-0.2-0.4-0.2c-0.1,0-0.3-0.1-0.5-0.1s-0.3,0-0.5,0.1c-0.1,0-0.3,0.1-0.4,0.2
		c-0.1,0.1-0.2,0.2-0.3,0.3s-0.1,0.2-0.2,0.4c0,0.1-0.1,0.2-0.1,0.2c-0.1,0-0.1,0-0.3,0l-0.4-0.1c0-0.3,0.1-0.6,0.2-0.8
		c0.1-0.2,0.3-0.4,0.5-0.6c0.2-0.2,0.4-0.3,0.6-0.3c0.2-0.1,0.5-0.1,0.8-0.1s0.5,0,0.8,0.1c0.2,0.1,0.4,0.2,0.6,0.4
		c0.2,0.2,0.3,0.3,0.4,0.6c0.1,0.2,0.1,0.5,0.1,0.8c0,0.2,0,0.5-0.1,0.7c-0.1,0.2-0.2,0.4-0.3,0.6c-0.1,0.2-0.3,0.4-0.4,0.5
		c-0.2,0.2-0.3,0.4-0.5,0.5l-1.7,1.7c0.1,0,0.2-0.1,0.4-0.1s0.2,0,0.4,0h2.2V421z"/>
	<path id="XMLID_233_" class="st0" d="M72,417.9c0.2-0.2,0.4-0.4,0.7-0.6c0.3-0.1,0.5-0.2,0.9-0.2c0.3,0,0.5,0.1,0.7,0.2
		c0.2,0.1,0.4,0.2,0.5,0.4c0.2,0.2,0.3,0.4,0.3,0.7c0.1,0.3,0.1,0.6,0.1,1c0,0.3,0,0.7-0.1,0.9c-0.1,0.3-0.2,0.5-0.4,0.8
		c-0.2,0.2-0.4,0.4-0.6,0.5s-0.5,0.2-0.8,0.2s-0.5,0-0.7-0.1s-0.4-0.2-0.5-0.4v2h-0.8v-6.1h0.5c0.1,0,0.2,0.1,0.2,0.2L72,417.9z
		 M72,420.7c0.1,0.2,0.3,0.3,0.5,0.4c0.2,0.1,0.4,0.1,0.6,0.1c0.4,0,0.8-0.2,1-0.5c0.2-0.3,0.3-0.7,0.3-1.3c0-0.3,0-0.6-0.1-0.8
		c-0.1-0.2-0.1-0.4-0.2-0.5c-0.1-0.1-0.2-0.2-0.4-0.3c-0.1-0.1-0.3-0.1-0.5-0.1c-0.3,0-0.5,0.1-0.7,0.2c-0.2,0.1-0.4,0.3-0.5,0.5
		L72,420.7L72,420.7z"/>
	<path id="XMLID_237_" class="st0" d="M76.1,417.9c0.3-0.2,0.5-0.4,0.8-0.5s0.6-0.2,1-0.2c0.3,0,0.5,0,0.7,0.1s0.4,0.2,0.5,0.4
		c0.1,0.1,0.2,0.3,0.3,0.5c0.1,0.2,0.1,0.4,0.1,0.7v2.9h-0.4c-0.1,0-0.1,0-0.2,0s-0.1-0.1-0.1-0.2l-0.1-0.4
		c-0.1,0.1-0.2,0.2-0.4,0.3c-0.1,0.1-0.2,0.2-0.4,0.2c-0.1,0.1-0.3,0.1-0.4,0.1c-0.1,0-0.3,0-0.5,0s-0.3,0-0.5-0.1s-0.3-0.1-0.4-0.2
		c-0.1-0.1-0.2-0.2-0.3-0.4c-0.1-0.2-0.1-0.3-0.1-0.5c0-0.2,0-0.4,0.1-0.5c0.1-0.2,0.3-0.3,0.5-0.4c0.2-0.1,0.5-0.2,0.9-0.3
		s0.8-0.1,1.3-0.1v-0.4c0-0.4-0.1-0.6-0.2-0.8c-0.1-0.2-0.4-0.3-0.7-0.3c-0.2,0-0.4,0-0.5,0.1s-0.2,0.1-0.3,0.2
		c-0.1,0.1-0.2,0.1-0.3,0.2c-0.1,0-0.1,0.1-0.2,0.1c-0.1,0-0.1,0-0.1,0l-0.1-0.1L76.1,417.9z M78.7,419.7c-0.4,0-0.7,0-0.9,0.1
		c-0.3,0-0.5,0.1-0.6,0.2c-0.2,0.1-0.3,0.2-0.4,0.3c-0.1,0.1-0.1,0.2-0.1,0.3s0,0.2,0.1,0.3c0,0.1,0.1,0.2,0.2,0.2
		c0.1,0.1,0.1,0.1,0.2,0.1s0.2,0,0.3,0s0.3,0,0.4,0c0.1,0,0.2-0.1,0.3-0.1c0.1-0.1,0.2-0.1,0.3-0.2c0.1-0.1,0.2-0.2,0.3-0.3v-0.9
		H78.7z"/>
	<path id="XMLID_240_" class="st0" d="M84.5,421.8h-0.8c-0.1,0-0.1,0-0.2-0.1l-0.1-0.1l-1.1-1.8v0.1c0,0,0,0.1-0.1,0.1l-1.1,1.6
		l-0.1,0.1l-0.1,0.1h-0.7l1.6-2.3l-1.5-2.2h0.8c0.1,0,0.1,0,0.1,0l0.1,0.1l1.1,1.7c0-0.1,0.1-0.2,0.1-0.3l1-1.4l0.1-0.1h0.1h0.7
		l-1.5,2.2L84.5,421.8z"/>
</g>
<g id="XMLID_263_">
	<path id="XMLID_199_" class="st0" d="M-12.4,485.9v2.9c-0.4,0.3-0.8,0.5-1.2,0.6s-0.9,0.2-1.3,0.2c-0.6,0-1.1-0.1-1.6-0.3
		c-0.5-0.2-0.9-0.4-1.2-0.8c-0.3-0.3-0.6-0.7-0.8-1.2s-0.3-0.9-0.3-1.5c0-0.5,0.1-1,0.3-1.5s0.4-0.8,0.8-1.2
		c0.3-0.3,0.7-0.6,1.2-0.8s1-0.3,1.6-0.3c0.3,0,0.6,0,0.8,0.1s0.5,0.1,0.7,0.2s0.4,0.2,0.6,0.3c0.2,0.1,0.3,0.2,0.5,0.4l-0.4,0.6
		c-0.1,0.1-0.1,0.2-0.2,0.2c-0.1,0-0.2,0-0.3-0.1s-0.2-0.1-0.3-0.2s-0.2-0.1-0.4-0.2s-0.3-0.1-0.5-0.1s-0.4,0-0.6,0
		c-0.4,0-0.7,0.1-1,0.2s-0.5,0.3-0.7,0.5s-0.4,0.5-0.5,0.8s-0.2,0.7-0.2,1c0,0.4,0.1,0.8,0.2,1.1c0.1,0.3,0.3,0.6,0.5,0.8
		c0.2,0.2,0.5,0.4,0.8,0.5s0.6,0.2,1,0.2c0.3,0,0.5,0,0.7-0.1s0.4-0.1,0.6-0.2v-1.3h-0.9c-0.1,0-0.2,0-0.2-0.1c0,0-0.1-0.1-0.1-0.2
		v-0.5H-12.4z"/>
	<path id="XMLID_201_" class="st0" d="M-9.8,483.4v2h2.5v1h-2.5v2h3.2v1.1h-4.6v-7.2h4.6v1.1H-9.8z"/>
	<path id="XMLID_203_" class="st0" d="M-0.3,483.4h-2.2v6.1h-1.3v-6.1H-6v-1.1h5.7V483.4z"/>
	<path id="XMLID_205_" class="st0" d="M8.9,482.3v7.2H8.2c-0.1,0-0.2,0-0.3-0.1c-0.1,0-0.1-0.1-0.2-0.2l-3.8-4.8c0,0.2,0,0.4,0,0.6
		v4.4H2.7v-7.2h0.7c0.1,0,0.1,0,0.1,0h0.1c0,0,0.1,0,0.1,0.1s0.1,0.1,0.1,0.1l3.8,4.8c0-0.1,0-0.2,0-0.3c0-0.1,0-0.2,0-0.3v-4.4
		L8.9,482.3L8.9,482.3z"/>
	<path id="XMLID_207_" class="st0" d="M17.4,486c0,0.5-0.1,1-0.3,1.5s-0.4,0.8-0.7,1.2s-0.7,0.6-1.2,0.8c-0.5,0.2-1,0.3-1.5,0.3
		s-1-0.1-1.5-0.3c-0.4-0.2-0.8-0.4-1.2-0.8s-0.6-0.7-0.7-1.2c-0.2-0.5-0.3-0.9-0.3-1.5c0-0.5,0.1-1,0.3-1.5s0.4-0.8,0.7-1.2
		s0.7-0.6,1.2-0.8c0.5-0.2,0.9-0.3,1.5-0.3c0.4,0,0.7,0,1,0.1s0.6,0.2,0.9,0.4c0.3,0.2,0.5,0.3,0.7,0.6c0.2,0.2,0.4,0.5,0.5,0.7
		s0.3,0.6,0.3,0.9C17.3,485.3,17.4,485.6,17.4,486z M16,486c0-0.4-0.1-0.8-0.2-1.1c-0.1-0.3-0.3-0.6-0.5-0.8
		c-0.2-0.2-0.4-0.4-0.7-0.5s-0.6-0.2-1-0.2s-0.7,0.1-1,0.2s-0.5,0.3-0.7,0.5s-0.4,0.5-0.5,0.8s-0.2,0.7-0.2,1.1s0.1,0.8,0.2,1.1
		c0.1,0.3,0.3,0.6,0.5,0.8c0.2,0.2,0.4,0.4,0.7,0.5s0.6,0.2,1,0.2s0.7-0.1,1-0.2s0.5-0.3,0.7-0.5s0.3-0.5,0.5-0.8
		C15.9,486.7,16,486.4,16,486z"/>
	<path id="XMLID_210_" class="st0" d="M28,482.3l-2.2,7.2h-1.2l-1.6-4.9c0-0.1-0.1-0.3-0.1-0.4c0,0.1,0,0.2-0.1,0.2
		c0,0.1,0,0.1-0.1,0.2l-1.6,4.9h-1.2l-2.2-7.2h1.1c0.1,0,0.2,0,0.3,0.1s0.1,0.1,0.2,0.2l1.2,4.3c0,0.1,0.1,0.2,0.1,0.3
		c0,0.1,0.1,0.3,0.1,0.4c0-0.1,0.1-0.3,0.1-0.4s0.1-0.2,0.1-0.3l1.4-4.3c0-0.1,0.1-0.1,0.2-0.2s0.2-0.1,0.3-0.1h0.4
		c0.1,0,0.2,0,0.3,0.1s0.1,0.1,0.2,0.2l1.4,4.3c0.1,0.2,0.1,0.4,0.2,0.7c0-0.3,0.1-0.5,0.1-0.7l1.2-4.3c0-0.1,0.1-0.2,0.2-0.2
		c0.1-0.1,0.2-0.1,0.3-0.1L28,482.3L28,482.3z"/>
</g>
<g id="XMLID_96_">
	<g id="XMLID_91_">
		<path id="XMLID_92_" class="st5" d="M29.3,449h-59.1c-1.9,0-3.5-1.6-3.5-3.5v-1.6c0-1.9,1.6-3.5,3.5-3.5h59.1
			c1.9,0,3.5,1.6,3.5,3.5v1.6C32.8,447.4,31.3,449,29.3,449z"/>
	</g>
	<g id="XMLID_93_">
		<text id="XMLID_48_" transform="matrix(1 0 0 1 -100.4712 429.9631)"><tspan x="0" y="0" class="st6 st7 st8">20%</tspan><tspan x="71.6" y="0" class="st6 st7 st9"> </tspan><tspan x="77.8" y="0" class="st10 st7 st9">DISCOUNT</tspan></text>
		<text id="XMLID_94_" transform="matrix(1 0 0 1 -23.4937 407.3386)" class="st5 st7 st11">Special Offer</text>
	</g>
	<text id="XMLID_47_" transform="matrix(1 0 0 1 -93.0352 462.2683)"><tspan x="0" y="0" class="st5 st12 st13">Teeth Whintening for</tspan><tspan x="88.7" y="0" class="st10 st12 st13"> Brighter Smile while in Bali</tspan></text>
	<text id="XMLID_46_" transform="matrix(1 0 0 1 -23.929 446.5735)" class="st0 st12 st14">Special on December 19</text>
	<g id="XMLID_95_">
		<g id="XMLID_49_">
			<g id="XMLID_67_">
				<ellipse id="XMLID_68_" class="st15" cx="7.7" cy="392.1" rx="16.1" ry="1.8"/>
			</g>
			<g id="XMLID_65_">
				<path id="XMLID_66_" class="st10" d="M24.6,352.2c-0.2-9.8-7.8-10.6-16.9-10.6c-9.1,0-16.7,0.8-16.9,10.6
					c-0.2,8.4,3.9,28.4,8.1,32.6c0.6,0.6,1.3,1,1.9,1c0,0,0.1,0,0.1,0c4.1-0.3,3.9-4,3.6-8.3c-0.1-1.3-0.2-2.7-0.2-4.1
					c0-4.3,1.9-4.9,3-4.9c0.1,0,0.2,0,0.3,0c0.1,0,0.2,0,0.2,0c0,0,0,0,0,0c0,0,0.1,0,0.3,0c1.1,0,3,0.6,3,4.9
					c0,1.5-0.1,2.8-0.2,4.1c-0.3,4.3-0.5,8,3.6,8.3c0,0,0.1,0,0.1,0c0.6,0,1.3-0.3,1.9-1C20.7,380.6,24.8,360.6,24.6,352.2z"/>
			</g>
			<g id="XMLID_63_">
				<path id="XMLID_64_" class="st10" d="M15.6,384c-0.3,0.3-0.6,0.6-1,0.6v0.6l0-0.6c-2.7-0.2-2.7-2.4-2.4-6.9
					c0.1-1.3,0.2-2.7,0.2-4.2c0-5.7-3.2-6.2-4.2-6.2c-0.2,0-0.3,0-0.4,0c-0.1,0-0.2,0-0.4,0c-1,0-4.2,0.4-4.2,6.2
					c0,1.5,0.1,3,0.2,4.2c0.3,4.5,0.3,6.7-2.4,6.9c-0.4,0-0.7-0.3-1-0.6c-3.8-3.9-7.9-23.6-7.7-31.7c0.2-8.7,6.6-9.4,15.6-9.4
					c9.1,0,15.5,0.7,15.6,9.4C23.5,360.4,19.4,380.1,15.6,384z"/>
			</g>
			<g id="XMLID_61_">
				<path id="XMLID_62_" class="st10" d="M3.9,342.8c-1.1,0-4.8-0.2-6.4-2.9c-0.8-1.4-0.8-2.6-0.7-3.5c0.1-1.2,0.1-2-1.4-3.3
					l-0.7-0.6l0.8-0.5c0,0,1-0.6,2.2-0.6c0.8,0,1.9,0.3,2.8,1.7c0.8,1.3,1.6,1.7,4.1,1.7l8.4,0c2.3,0,4.1,1.8,4.1,4
					c0,2.1-2.1,4-4.5,4H4.2C4.2,342.8,4.1,342.8,3.9,342.8z"/>
			</g>
			<g id="XMLID_59_">
				<path id="XMLID_60_" class="st10" d="M-3,332.8c1.2,1.3,1.2,2.5,1.1,3.6c0,0.9-0.1,1.7,0.5,2.8c1.2,2.1,4.6,2.2,5.2,2.2
					c0.1,0,0.2,0,0.2,0l8.4,0c1.6,0,3.1-1.3,3.1-2.7c0-1.5-1.2-2.7-2.8-2.7H4.6c-2.6,0-4.1-0.4-5.3-2.3c-0.4-0.7-0.9-1-1.6-1
					C-2.6,332.7-2.8,332.8-3,332.8z"/>
			</g>
			<g id="XMLID_55_">
				<g id="XMLID_57_">
					<path id="XMLID_58_" class="st10" d="M5.2,340.2H4.3c-0.4,0-0.7-0.3-0.7-0.7c0-0.4,0.3-0.7,0.7-0.7h0.9c0.4,0,0.7,0.3,0.7,0.7
						C5.9,339.9,5.6,340.2,5.2,340.2z"/>
				</g>
			</g>
			<g id="XMLID_52_">
				<polygon id="XMLID_54_" class="st10" points="26.9,378.5 28.3,381.7 31.6,383.1 28.3,384.5 26.9,387.8 25.5,384.5 22.3,383.1 
					25.5,381.7 				"/>
			</g>
			<g id="XMLID_50_">
				<polygon id="XMLID_51_" class="st10" points="-12.5,336.9 -11.1,340.1 -7.9,341.5 -11.1,343 -12.5,346.2 -13.9,343 -17.2,341.5 
					-13.9,340.1 				"/>
			</g>
		</g>
		<g id="XMLID_73_" class="st2">
			<g id="XMLID_74_">
				<path id="XMLID_75_" class="st10" d="M20.4,378.2c-11.1,8.6-17.8-6-34.4-3c-16.6,3-5.3-25.5,5.8-34.1c11.1-8.6,16.9,4.5,33.8,10
					S31.5,369.6,20.4,378.2z"/>
			</g>
		</g>
	</g>
</g>
</svg>
